<?xml version="1.0" standalone="no"?>
<!DOCTYPE svg PUBLIC "-//W3C//DTD SVG 1.1//EN" "http://www.w3.org/Graphics/SVG/1.1/DTD/svg11.dtd" >
<svg xmlns="http://www.w3.org/2000/svg" xmlns:xlink="http://www.w3.org/1999/xlink" version="1.1">
<metadata></metadata>
<defs>
<font id="australisregular" horiz-adv-x="997" >
<font-face units-per-em="2048" ascent="1638" descent="-410" />
<missing-glyph horiz-adv-x="571" />
<glyph horiz-adv-x="0" />
<glyph horiz-adv-x="682" />
<glyph unicode=" "  horiz-adv-x="571" />
<glyph unicode="&#x09;" horiz-adv-x="571" />
<glyph unicode="&#xa0;" horiz-adv-x="571" />
<glyph unicode="!" horiz-adv-x="532" d="M113 92q0 55 32 86t84 31q42 0 70 -18t35 -36l8 -18q8 19 8 58q0 47 -23 105t-50.5 110.5t-50.5 147.5t-23 208q0 147 102 147q78 0 78 -86q0 -37 -16.5 -124.5t-16.5 -159.5q0 -65 26.5 -170t26.5 -178q0 -106 -45 -166t-120 -60q-59 0 -92 32.5t-33 90.5z" />
<glyph unicode="&#x22;" horiz-adv-x="909" d="M252 1321q-5 46 13 76t54 30q32 0 51 -30t15 -76l-41 -393h-53zM524 1321q-5 46 13.5 76t54.5 30q32 0 50.5 -30t14.5 -76l-41 -393h-53z" />
<glyph unicode="#" horiz-adv-x="1228" d="M96 395q0 58 24.5 110t60 88.5t71 67t60 58.5t24.5 51q0 31 -20 65t-43.5 60.5t-43.5 73t-20 100.5q0 113 114.5 198t262.5 85q146 0 210 -31.5t64 -112.5q0 -42 -24 -69t-64 -27q-37 0 -59.5 25t-22.5 65v66q-41 14 -104 14q-111 0 -165 -68t-54 -174q0 -43 41 -122.5 t41 -133.5q0 -25 -17.5 -51t-42.5 -53.5t-50 -62.5t-42.5 -92.5t-17.5 -129.5q0 -50 8 -97t29 -95t54 -83t87 -57t123 -22q157 0 247.5 96.5t90.5 286.5v18q0 39 -0.5 61.5t-2.5 64t-8.5 67.5t-16.5 54t-27.5 42t-41.5 14q-78 0 -121 -32t-43 -72v-68q-12 -26 -51 -26 q-29 0 -44 20.5t-15 75.5q0 62 57.5 97.5t139 48t163.5 22.5t139.5 35.5t57.5 73.5v67q12 27 51 27q29 0 44 -20.5t15 -75.5q0 -41 -29.5 -72t-71 -46t-83 -24.5t-70.5 -11.5l-30 -2l9 -3t23.5 -11t33 -22.5t35 -39.5t33 -58t23 -82.5t9.5 -109.5t-17.5 -121t-58 -124.5 t-99 -111.5t-150 -79.5t-202.5 -30.5q-237 0 -355 108.5t-118 317.5z" />
<glyph unicode="$" horiz-adv-x="755" d="M102 623q0 61 22.5 109t61 78t85.5 47t100 22l26 309q8 74 33.5 120t63.5 46q15 0 24.5 -10t9.5 -25q0 -20 -10.5 -31t-23 -14t-24 -12t-13.5 -27l-35 -354q87 -1 126 -11t49.5 -28.5t10.5 -61.5q0 -30 -8 -40.5t-27 -10.5q-11 0 -90 20.5t-151 20.5q-75 0 -113.5 -29 t-38.5 -98q0 -37 26 -60.5t68 -36.5t92 -24.5t100.5 -28.5t92.5 -43.5t68 -76.5t26 -119q0 -65 -26.5 -120t-68.5 -89t-89.5 -54t-93.5 -22l-31 -319q-6 -73 -31.5 -119.5t-64.5 -46.5q-15 0 -25 10t-10 25q0 20 10.5 31t24 14t25 12t12.5 27l37 366q-64 2 -104.5 11.5 t-58.5 28.5t-23 37.5t-5 49.5q0 19 10.5 29t24.5 10q28 0 51.5 -10.5t63.5 -21.5t106 -11q95 0 140.5 30.5t45.5 100.5q0 33 -26 55.5t-67.5 35.5t-92 26t-100.5 32.5t-91.5 48t-67.5 80.5t-26 122z" />
<glyph unicode="%" horiz-adv-x="1341" d="M102 760q0 108 78.5 187t190.5 79q116 0 192 -78t76 -188q0 -52 -18 -98q110 65 205.5 160t136.5 165l200 348q7 11 15 11q9 0 19.5 -8t10.5 -17q0 -6 -2 -10l-757 -1311q281 381 522 381q111 0 189.5 -79t78.5 -187q0 -112 -78.5 -195.5t-189.5 -83.5t-190 83.5 t-79 195.5q0 35 15 86q-110 -66 -205.5 -162t-134.5 -164l-225 -391q-7 -10 -17 -10q-8 0 -19.5 8.5t-11.5 15.5l5 10l780 1352q-278 -379 -518 -379q-112 0 -190.5 83.5t-78.5 195.5zM166 760q0 -86 55.5 -129t149.5 -43q93 0 147.5 43t54.5 129q0 81 -54 122.5t-148 41.5 q-95 0 -150 -41t-55 -123zM766 115q0 -86 55.5 -129t149.5 -43q93 0 148 43t55 129q0 81 -54.5 122.5t-148.5 41.5q-89 0 -147 -39t-58 -125z" />
<glyph unicode="&#x26;" horiz-adv-x="1142" d="M133 231q0 45 14.5 82.5t38 62.5t52 44.5t57 30t52 17.5t37.5 9l15 2q-8 1 -20.5 4t-45 17t-57 33t-45 56t-20.5 83q0 82 47.5 138t118.5 79.5t160 23.5q146 0 210 -31t64 -112q0 -42 -24 -69t-64 -27q-37 0 -59.5 25t-22.5 65v65q-41 15 -104 15q-91 0 -129.5 -46.5 t-38.5 -119.5q0 -78 50 -122t142 -44q224 0 318 31.5t94 89.5v67q1 3 3.5 7.5t14.5 12t29 7.5q28 0 39.5 -20t11.5 -76q0 -41 -26 -72t-63 -46t-74 -24.5t-63 -11.5l-26 -2q6 0 16.5 -2t37 -13.5t47 -30t37 -58t16.5 -92.5q0 -145 -115 -227.5t-334 -82.5q-80 0 -146 13 t-123 41.5t-89.5 81.5t-32.5 126zM299 231q0 -190 231 -190q47 0 84 4.5t75.5 18.5t64 37.5t41.5 64t16 94.5q0 61 -9.5 102t-26 59t-32 24t-34.5 6h-183q-75 0 -122 -15t-69 -47t-29 -67t-7 -91z" />
<glyph unicode="'" horiz-adv-x="636" d="M252 1321q-5 46 13 76t54 30q32 0 51 -30t15 -76l-41 -393h-53z" />
<glyph unicode="(" horiz-adv-x="759" d="M184 469q0 146 18 272.5t48.5 217.5t69.5 166.5t83 124.5t87.5 86.5t82.5 57t69.5 32t48.5 15.5l18 3v-14q-9 -4 -25 -11.5t-61 -41t-86.5 -77t-92 -122.5t-86.5 -173.5t-61 -234.5t-25 -301q0 -126 15 -240t40 -199.5t58 -159.5t69 -126t72.5 -94.5t69.5 -68t58 -43 t40 -24.5l15 -6v-14q-7 1 -18.5 3.5t-47.5 15.5t-70.5 32t-82 57t-88 86.5t-82 124t-70.5 166.5t-47.5 217.5t-18.5 272.5z" />
<glyph unicode=")" horiz-adv-x="761" d="M51 -492q9 4 24.5 11.5t61 41t86.5 77t91.5 122.5t86.5 173.5t61 234.5t25 301q0 126 -15 240t-40 199.5t-58 159.5t-69 126t-72 94.5t-69 68t-58 43t-40 24.5l-15 6v14q11 -1 30 -5.5t73.5 -29.5t104.5 -62t111 -113t104.5 -173.5t73.5 -251.5t30 -340 q0 -146 -18 -272.5t-48.5 -217.5t-70 -166.5t-83 -124.5t-87.5 -86.5t-83.5 -57t-70 -32t-48.5 -15.5l-18 -3v14z" />
<glyph unicode="*" horiz-adv-x="890" d="M82 1118q3 4 8.5 10t23 22t36.5 28t47.5 22t56.5 10q31 0 60 -11.5t58 -36.5t44.5 -41t42.5 -48l35 96q-107 47 -107 142q0 67 29 112q62 -25 104.5 -73t42.5 -109q0 -32 -10.5 -65.5t-24 -57.5t-39.5 -65l103 -4q6 74 49.5 115.5t116.5 41.5l51 -6q0 -4 -1 -11.5 t-5.5 -29t-12 -41t-22 -43.5t-33.5 -41t-49.5 -29t-67.5 -12q-55 0 -139 23l27 -98q30 6 55 6q39 0 70 -17t47 -41.5t26 -49t12 -41.5l3 -17q-55 -10 -78 -10q-58 0 -97.5 20.5t-60.5 61t-30 82t-13 102.5l-84 -56q31 -53 31 -102q0 -27 -12.5 -52t-30 -42t-34.5 -30 t-30 -19l-12 -6q-41 61 -41 139q0 42 16 75.5t49 58t61.5 39t74.5 32.5l-80 63q-23 -27 -55.5 -47t-63.5 -20q-41 0 -77.5 17.5t-53.5 35.5z" />
<glyph unicode="+" horiz-adv-x="927" d="M123 416v94h295v295h94v-295h293v-94h-293v-293h-94v293h-295z" />
<glyph unicode="," horiz-adv-x="595" d="M131 -326q0 21 35 41q8 4 21 11.5t46 32t58 52t46 69.5t21 85q0 19 -0.5 26.5t-2 21.5t-6.5 20t-13 6q-11 0 -18 -11.5t-11 -24.5t-20 -24.5t-43 -11.5q-43 0 -70 35t-27 94q0 61 42.5 101.5t103.5 40.5q82 0 127 -59.5t45 -147.5q0 -81 -38 -158t-89 -125t-99 -77 t-73 -29q-14 0 -24.5 8t-10.5 24z" />
<glyph unicode="-" horiz-adv-x="681" d="M0 438v74h682v-74h-682z" />
<glyph unicode="." horiz-adv-x="532" d="M123 106q0 61 40.5 101.5t102.5 40.5t103 -41t41 -101q0 -58 -41 -97.5t-103 -39.5t-102.5 39.5t-40.5 97.5z" />
<glyph unicode="/" horiz-adv-x="696" d="M72 -295l448 1729h86l-448 -1729h-86z" />
<glyph unicode="0" horiz-adv-x="1099" d="M102 434q0 183 130.5 315t316.5 132q187 0 317.5 -132t130.5 -315q0 -91 -35 -176t-94 -148.5t-143 -102t-176 -38.5q-122 0 -225.5 64.5t-162.5 171.5t-59 229zM195 434q0 -152 98.5 -231.5t255.5 -79.5q158 0 255 79.5t97 231.5q0 144 -97.5 221.5t-254.5 77.5 t-255.5 -76.5t-98.5 -222.5z" />
<glyph unicode="1" horiz-adv-x="768" d="M133 0v41q8 0 21.5 0.5t48.5 5t61.5 12t48 24.5t21.5 40v610q0 12 -1 21t-3.5 15.5t-5 11t-8 7.5t-8.5 4.5t-11 2t-12 0.5h-14.5h-14.5h-123v59l348 27v-758q0 -36 51.5 -56.5t102.5 -22.5l51 -3v-41h-553z" />
<glyph unicode="2" horiz-adv-x="849" d="M102 680q0 76 91 138.5t249 62.5q37 0 78 -12.5t82 -38t67.5 -72.5t26.5 -107t-27.5 -121.5t-71.5 -112t-97 -98t-106.5 -82.5t-97.5 -62t-72 -41l-27 -13h581l-24 -121h-635v123q9 5 23.5 13t57.5 35.5t81.5 56.5t86 72t81.5 85.5t57.5 94t23.5 100.5q0 223 -176 223 q-27 0 -50.5 -7.5t-33.5 -15.5l-10 -8v-92q0 -35 -22 -58.5t-56 -23.5q-33 0 -56.5 20t-23.5 62z" />
<glyph unicode="3" horiz-adv-x="923" d="M92 160q0 19 18.5 37t39.5 18q14 0 28.5 -18t31 -44t39.5 -52t63.5 -44t93.5 -18q36 0 75.5 16.5t76.5 47t61 84t24 118.5q0 72 -21.5 130t-55.5 95t-79 62t-90 35t-90 10q-22 0 -22 16q0 7 6 15.5t14 11.5q23 10 46.5 22t66.5 42t74 64t55 86.5t24 109.5q0 217 -200 217 q-42 0 -70 -9.5t-35 -19.5l-8 -10v-92q0 -36 -21 -58t-57 -22q-33 0 -53.5 21.5t-20.5 66.5q0 31 24 67t66 68.5t108.5 54t141.5 21.5q70 0 134.5 -25.5t110.5 -81.5t46 -131q0 -65 -27.5 -125t-67 -99.5t-79 -69t-67.5 -43.5l-27 -13q7 -1 18.5 -4.5t45 -16t64 -29 t67.5 -46.5t63.5 -65.5t45 -87.5t18.5 -112q0 -110 -56 -201.5t-139.5 -140.5t-169.5 -49q-149 0 -241.5 64t-92.5 127z" />
<glyph unicode="4" horiz-adv-x="1093" d="M41 27q0 2 1 5t3 6.5l4 7t6 9t7 10t9 11.5t10.5 12.5t11.5 14.5t13 16l609 762h20q13 0 13 -17v-768h344l-25 -96h-319v-410q0 -30 -21 -30h-100q-23 0 -23 30v410h-536q-27 0 -27 27zM174 96h430v553z" />
<glyph unicode="5" horiz-adv-x="874" d="M78 -395q0 18 19 38.5t36 20.5q8 0 23 -18.5t33 -40t59 -40t96 -18.5q115 0 190.5 88t75.5 234q0 73 -25 134.5t-65 101t-88.5 70t-97 46.5t-88.5 26t-65 13l-25 2l59 592h561l-31 -125h-466l-31 -354q10 -1 28 -3.5t69.5 -15t98.5 -29.5t104.5 -50t98.5 -74t69.5 -103.5 t28.5 -136.5q0 -110 -36 -200.5t-97.5 -148.5t-141.5 -89t-169 -31q-98 0 -160.5 36t-62.5 75z" />
<glyph unicode="6" horiz-adv-x="1040" d="M119 469q0 154 45 295t122 247t176 185t211 119.5t224 40.5q164 0 164 -45q0 -16 -9.5 -33.5t-23.5 -17.5q-12 0 -49.5 14t-81.5 14q-98 0 -188 -26.5t-173 -87t-143.5 -149t-96.5 -222.5t-36 -299q0 -202 89 -325.5t241 -123.5q86 0 138 62t52 149q0 82 -25 151t-65 113 t-89 68.5t-99 24.5q-43 0 -77 -14.5t-42 -14.5q-11 0 -18 7t-7 15q0 34 69.5 62.5t125.5 28.5q151 0 264 -105t113 -254q0 -161 -112 -270t-273 -109q-192 0 -309 135.5t-117 364.5z" />
<glyph unicode="7" horiz-adv-x="778" d="M31 733l22 121h684v-55q0 -58 -27 -132t-70.5 -151.5t-95.5 -163t-104.5 -178t-96 -184.5t-70.5 -194t-27 -195q0 -15 -5.5 -23.5t-18.5 -12.5t-23 -4.5t-31 -0.5t-31 0.5t-23 4.5t-18.5 12.5t-5.5 23.5q0 95 30 195.5t78 188.5t105.5 174.5t115.5 165.5t106 149.5 t78 138t30 120.5h-602z" />
<glyph unicode="8" horiz-adv-x="1021" d="M123 328q0 57 28 113t68 95t80 69.5t68 45.5l28 15q-10 5 -26.5 14.5t-58.5 40.5t-74.5 64t-59 82t-26.5 98q0 151 108 248.5t262 97.5q145 0 247.5 -93t102.5 -233q0 -49 -23.5 -100.5t-57 -90.5t-66.5 -71t-57 -49l-23 -17q10 -6 27.5 -17t61.5 -45t78 -68.5t61.5 -84 t27.5 -94.5q0 -160 -118.5 -269.5t-280.5 -109.5q-151 0 -264 102t-113 257zM266 375q0 -144 84.5 -232t208.5 -88q86 0 138.5 62t52.5 149q0 47 -31 101.5t-75 98t-88.5 81t-75.5 57.5l-31 21q-7 -4 -19.5 -11.5t-44 -32t-55.5 -52t-44 -69.5t-20 -85zM291 1010 q0 -46 31 -95.5t75.5 -87t88.5 -68.5t75 -47l31 -16q6 3 15 9.5t32.5 27.5t41.5 43.5t33 57.5t15 71q0 58 -13.5 111.5t-43 103t-84 79.5t-127.5 30q-96 0 -133 -58.5t-37 -160.5z" />
<glyph unicode="9" horiz-adv-x="1013" d="M-20 -461q0 16 9 33.5t23 17.5q12 0 49.5 -14t81.5 -14q98 0 188 26.5t173 87t143.5 149t96.5 222.5t36 299q0 114 -35.5 214t-112.5 167.5t-181 67.5q-86 0 -138.5 -62t-52.5 -149q0 -82 25 -151t65.5 -113t89.5 -68.5t99 -24.5q43 0 76.5 14.5t41.5 14.5q11 0 18 -7.5 t7 -15.5q0 -34 -69.5 -62t-125.5 -28q-151 0 -263.5 105t-112.5 254q0 161 112 270t273 109q189 0 307.5 -141t118.5 -359q0 -154 -45 -295t-122 -247t-176.5 -185t-211.5 -119.5t-224 -40.5q-163 0 -163 45z" />
<glyph unicode=":" horiz-adv-x="532" d="M123 106q0 61 40.5 101.5t102.5 40.5t103 -41t41 -101q0 -58 -41 -97.5t-103 -39.5t-102.5 39.5t-40.5 97.5zM123 739q0 61 40.5 101.5t102.5 40.5t103 -40.5t41 -101.5q0 -58 -41 -97.5t-103 -39.5t-102.5 39.5t-40.5 97.5z" />
<glyph unicode=";" horiz-adv-x="595" d="M131 -326q0 21 35 41q8 4 21 11.5t46 32t58 52t46 69.5t21 85q0 24 -5 33.5t-17 9.5q-10 0 -33.5 -15.5t-48.5 -15.5q-43 0 -72.5 35t-29.5 90q0 61 40 98.5t101 37.5q83 0 127.5 -56.5t44.5 -144.5q0 -77 -24 -144.5t-60.5 -112t-78.5 -77t-77.5 -47t-58.5 -14.5 q-14 0 -24.5 8t-10.5 24zM160 739q0 57 39 96t98 39t98 -39t39 -96q0 -55 -39 -93t-98 -38t-98 38t-39 93z" />
<glyph unicode="=" horiz-adv-x="927" d="M123 244v94h682v-94h-682zM123 539v94h682v-94h-682z" />
<glyph unicode="?" horiz-adv-x="917" d="M127 635q0 118 94 198t244 80q140 0 224.5 -76t84.5 -198q0 -58 -23.5 -105t-61 -79.5t-82.5 -60.5t-90 -54t-82.5 -54t-61 -67t-23.5 -86q1 3 3.5 7t11.5 14.5t19.5 19t28 15t36.5 6.5q51 0 82.5 -31.5t31.5 -81.5q0 -51 -33 -82t-88 -31q-68 0 -106.5 42.5t-38.5 121.5 q0 54 22.5 102.5t57 82.5t74 70.5t74 68t57 75t22.5 91.5q0 75 -51 126.5t-137 51.5q-99 0 -164.5 -47t-65.5 -119q0 -40 13 -67.5t28 -38t28 -20t13 -17.5q0 -7 -5 -13t-11 -6q-14 0 -33 7.5t-40.5 24.5t-36.5 51t-15 79z" />
<glyph unicode="@" horiz-adv-x="1779" d="M172 338q0 158 37.5 279.5t102 199t159.5 126.5t202 69t238 20q69 0 122 -2t113.5 -7.5t106 -15.5t94 -26t84 -40t70 -56t58 -75.5t42 -96.5t27 -121t8.5 -148q0 -121 -33 -223.5t-104.5 -170.5t-169.5 -68q-57 0 -94 8.5t-72 33t-61.5 70t-52.5 119.5l-41 117 q-8 -7 -22.5 -17.5t-59 -27.5t-88.5 -17q-23 0 -51.5 8t-46.5 16l-17 9l-55 -168q-2 -12 -2 -16q0 -31 36 -50t72 -23l35 -3v-41h-352v41q4 0 12 1t28.5 7t37.5 15t35 27t26 42l211 612l219 33l178 -522q69 -197 152 -197q61 0 98 104t37 257q0 107 -14 187.5t-45.5 140 t-76 98t-112 62t-146.5 33t-186 9.5q-309 0 -451.5 -146t-142.5 -466q0 -171 28 -281.5t95.5 -179.5t169.5 -97t260 -28q127 0 228 15.5t149.5 33.5t92 33.5t69.5 15.5q33 0 33 -28q0 -69 -174 -110.5t-398 -41.5q-95 0 -171 7.5t-150 27t-129.5 51.5t-104 83.5t-79 120.5 t-47.5 164t-17 214zM754 391q6 -5 18 -12t51 -19t80 -12q23 0 45.5 8t33.5 16l11 7l-94 293h-53z" />
<glyph unicode="A" horiz-adv-x="1269" d="M-20 0v41q6 0 16.5 0.5t38.5 6t50.5 14t44.5 27.5t30 44l340 1186l256 33l354 -1219q12 -39 57 -62t84 -27l39 -3v-41h-573v41q8 0 22 1t49 5.5t61.5 12t48.5 23t22 36.5l-2 14l-142 504q-4 -4 -12.5 -10.5t-35 -23t-55 -29t-70.5 -23t-83 -10.5q-33 0 -74 11.5t-66 22.5 l-24 11l-125 -453q-2 -12 -2 -16q0 -31 51.5 -50t102.5 -23l51 -3v-41h-454zM389 698q11 -8 31 -19.5t79 -30.5t115 -19q36 0 73.5 12.5t56.5 24.5l20 12l-164 567h-55z" />
<glyph unicode="B" horiz-adv-x="1257" d="M82 0v41q8 0 21 0.5t46 5.5t58 13.5t46 27.5t21 45v1063q0 26 -20 45t-48 27.5t-56 13.5t-48 6h-20v31h192q106 0 251 16.5t169 16.5q174 0 274.5 -86t100.5 -232q0 -58 -19.5 -112t-47.5 -90t-56 -63.5t-48 -40.5l-19 -13q6 -1 16 -3.5t38.5 -13.5t54.5 -26t58 -42.5 t55 -61t38.5 -84t15.5 -109.5q0 -110 -60 -197.5t-152 -132.5t-193 -45h-668zM453 74h245q123 0 199 88.5t76 210.5q0 128 -70 215.5t-194 87.5h-256v-602zM453 731h211q61 0 106 24.5t69.5 68t36 95t11.5 113.5q0 91 -70 170.5t-172 79.5q-44 0 -92 -4.5t-74 -9.5l-26 -4 v-533z" />
<glyph unicode="C" horiz-adv-x="1310" d="M82 659q0 141 50 269t134.5 221t201.5 148t247 55q126 0 238 -18t161 -36l49 -18v-221h-37l-51 100q-66 129 -342 129h-8h-8q-114 0 -210 -84.5t-151 -228.5t-55 -313q0 -77 14 -160t46 -167.5t78.5 -151t118 -108.5t157.5 -42q161 0 250 28t135 117l51 101h37v-222 q-6 -4 -17.5 -9.5t-53.5 -21t-92 -27t-133.5 -21t-176.5 -9.5q-173 0 -319 93t-230 251.5t-84 345.5z" />
<glyph unicode="D" horiz-adv-x="1429" d="M82 0v41q8 0 21 0.5t46 5.5t58 13.5t46 27.5t21 45v1063q0 26 -20 45t-48 27.5t-56 13.5t-48 6h-20v31h235q85 0 229.5 16.5t198.5 16.5q125 0 230.5 -45.5t184 -131t123 -218.5t44.5 -298q0 -186 -84.5 -337.5t-229.5 -236.5t-319 -85h-612zM453 111q6 -5 21 -12 t76.5 -19t143.5 -12q114 0 209.5 76t151 212.5t55.5 305.5t-55 311.5t-151 225.5t-210 83q-34 0 -67 -2.5t-76.5 -10t-70.5 -26.5t-27 -47v-1085z" />
<glyph unicode="E" horiz-adv-x="1171" d="M82 0v41q8 0 21 0.5t46 5.5t58 13.5t46 27.5t21 45v1063q0 26 -20 45t-48 27.5t-56 13.5t-48 6h-20v31h643q50 0 121 5t116 10l46 5v-272h-37l-51 100q-27 53 -47.5 65.5t-84.5 12.5h-335v-540h307q31 0 39.5 6.5t15.5 36.5l21 88h55v-320h-55l-21 92q-6 29 -15 35t-42 6 h-305v-573h348q84 0 118.5 15.5t63.5 78.5l35 70h51l-22 -265q-185 25 -324 25h-641z" />
<glyph unicode="F" horiz-adv-x="1069" d="M82 0v41q8 0 21 0.5t46 5.5t58 13.5t46 27.5t21 45v1063q0 26 -20 45t-48 27.5t-56 13.5t-48 6h-20v31h643q50 0 121 5t116 10l46 5v-272h-37l-51 100q-27 53 -47.5 65.5t-84.5 12.5h-335v-561h307q31 0 39.5 6.5t15.5 36.5l21 88h57v-319h-57l-21 92q-6 29 -15 35t-42 6 h-305v-496q0 -26 20 -45t48 -27.5t56 -13.5t48 -5l20 -1v-41h-563z" />
<glyph unicode="G" horiz-adv-x="1323" d="M82 659q0 141 50 269t134.5 221t201.5 148t247 55q129 0 240 -18t157 -36l47 -18v-221h-37l-51 100q-12 23 -27.5 42t-37 32t-39.5 23t-46 15.5t-44 9.5t-47 5.5t-41.5 2t-40 0t-31.5 -0.5q-114 0 -210 -84.5t-151 -228.5t-55 -313q0 -170 55 -316.5t150.5 -233.5 t208.5 -87q59 0 107.5 7.5t76.5 18.5t48 22.5t27 18.5l7 8v262q0 38 -38 58t-99 20h-137v45h452v-401q-6 -5 -16.5 -12.5t-50.5 -27.5t-87 -35t-125 -27.5t-165 -12.5q-173 0 -319 93t-230 251.5t-84 345.5z" />
<glyph unicode="H" horiz-adv-x="1552" d="M82 0v41q8 0 21 0.5t46 5.5t58 13.5t46 27.5t21 45v1063q0 26 -20 45t-48 27.5t-56 13.5t-48 6h-20v31h563v-31q-8 0 -21 -0.5t-46 -5.5t-58 -13.5t-46 -27.5t-21 -45v-485q13 9 34.5 22.5t82 36.5t112.5 23q60 0 155 -44t144 -44q24 0 54 8t47 16l18 8v459q0 26 -20 45 t-48 27.5t-56.5 13.5t-48.5 6h-20v31h563v-31q-8 0 -21 -0.5t-46 -5.5t-58 -13.5t-46 -27.5t-21 -45v-1063q0 -26 20 -45t48 -27.5t56 -13.5t48 -5l20 -1v-41h-563v41q8 0 21 0.5t46 5.5t58.5 13.5t46.5 27.5t21 45v551q-5 -3 -13 -8.5t-34 -20t-52 -25t-62 -19.5t-69 -9 q-62 0 -158 44t-139 44q-26 0 -56 -8t-47 -16l-17 -9v-524q0 -26 20 -45t48 -27.5t56 -13.5t48 -5l20 -1v-41h-563z" />
<glyph unicode="I" horiz-adv-x="727" d="M82 0v41q8 0 21 0.5t46 5.5t58 13.5t46 27.5t21 45v1063q0 26 -20 45t-48 27.5t-56 13.5t-48 6h-20v31h563v-31q-8 0 -21 -0.5t-46 -5.5t-58 -13.5t-46 -27.5t-21 -45v-1063q0 -26 20 -45t48 -27.5t56 -13.5t48 -5l20 -1v-41h-563z" />
<glyph unicode="J" horiz-adv-x="757" d="M0 -487q0 7 1.5 12t5.5 8t6.5 5t9.5 2.5t10 0.5h11.5h10.5q68 0 127 53.5t91 129t32 147.5v1325q0 26 -20 45t-48 27.5t-56 13.5t-48 6h-20v31h563v-31q-8 0 -21 -0.5t-46 -5.5t-58.5 -13.5t-46.5 -27.5t-21 -45v-1268q0 -90 -26.5 -165.5t-70.5 -126.5t-101 -86.5 t-116.5 -51.5t-119.5 -16q-17 0 -25 1t-16 8.5t-8 21.5z" />
<glyph unicode="K" horiz-adv-x="1273" d="M82 0v41q8 0 21 0.5t46 5.5t58 13.5t46 27.5t21 45v1063q0 26 -20 45t-48 27.5t-56 13.5t-48 6h-20v31h563v-31q-8 0 -21 -0.5t-46 -5.5t-58 -13.5t-46 -27.5t-21 -45v-1063q0 -26 20 -45t48 -27.5t56 -13.5t48 -5l20 -1v-41h-563zM616 688l322 479q16 24 16 39 q0 32 -37 52.5t-73 25.5l-37 4v31h436v-31q-13 -1 -34.5 -4.5t-72 -29t-83.5 -68.5l-293 -377q-25 -31 -25 -59q0 -25 31 -70l364 -502q21 -29 57 -64t61 -55l26 -20v-25q-154 -45 -174 -45q-24 0 -115 137l-367 539q-15 23 -2 43z" />
<glyph unicode="L" horiz-adv-x="1069" d="M82 0v41q8 0 21 0.5t46 5.5t58 13.5t46 27.5t21 45v1063q0 26 -20 45t-48 27.5t-56 13.5t-48 6h-20v31h563v-31q-8 0 -21 -0.5t-46 -5.5t-58 -13.5t-46 -27.5t-21 -45v-1120h348q84 0 118.5 15.5t63.5 78.5l35 70h51l-22 -265q-185 25 -324 25h-641z" />
<glyph unicode="M" horiz-adv-x="1816" d="M41 0v41q8 0 20.5 0.5t44.5 5.5t57.5 13.5t46.5 27.5t23 45l82 1063q2 26 -17.5 45t-48 27.5t-57 13.5t-48.5 6h-21v31h401l385 -1081h6l392 1081h387v-31q-8 0 -21.5 -0.5t-47.5 -5.5t-59.5 -13.5t-46 -27.5t-18.5 -45l82 -1063q2 -26 22.5 -45t48.5 -27.5t55.5 -13.5 t46.5 -5l20 -1v-41h-564v41q8 0 21.5 0.5t47 5.5t59 13.5t46 27.5t19.5 45l-74 1006h-8l-422 -1139h-96l-408 1122h-6l-78 -989q-2 -26 17.5 -45t48 -27.5t57.5 -13.5t50 -5l20 -1v-41h-465z" />
<glyph unicode="N" horiz-adv-x="1433" d="M0 1288v31h338l811 -1034v911q0 26 -20 45t-48 27.5t-56.5 13.5t-48.5 6h-20v31h478v-31q-8 0 -21 -0.5t-46 -5.5t-58.5 -13.5t-46.5 -27.5t-21 -45v-1196h-92l-795 1008v-875q0 -26 20 -45t48 -27.5t56.5 -13.5t48.5 -5l20 -1v-41h-477v41q8 0 21 0.5t46 5.5t58 13.5 t46 27.5t21 45v983l-69 80q-27 31 -75.5 54t-83.5 30z" />
<glyph unicode="O" horiz-adv-x="1429" d="M82 659q0 143 44 269t124.5 220.5t200.5 149t264 54.5t264 -54.5t200.5 -149t124.5 -220.5t44 -269q0 -142 -44 -267.5t-124.5 -219.5t-200.5 -148.5t-264 -54.5t-264 54.5t-200.5 148.5t-124.5 219.5t-44 267.5zM301 662q0 -131 26.5 -245t77 -202t130.5 -139t180 -51 q131 0 227 88.5t142 230.5t46 318q0 174 -46 314t-141.5 226t-227.5 86t-227.5 -86t-141 -225.5t-45.5 -314.5z" />
<glyph unicode="P" horiz-adv-x="1110" d="M82 0v41q8 0 21 0.5t46 5.5t58 13.5t46 27.5t21 45v1063q0 26 -20 45t-48 27.5t-56 13.5t-48 6h-20v31h192q109 0 252.5 16.5t167.5 16.5q169 0 272 -102t103 -244q0 -165 -104 -268t-256 -103h-119q-3 0 -13.5 -0.5t-12.5 0t-8.5 2t-7.5 5t-3 9.5t-2 15q0 5 1 9t2 7 t4 4.5l5 2.5t6.5 1h8h10h10.5h74q61 0 106 26.5t69.5 72.5t36 99.5t11.5 115.5q0 58 -29.5 121.5t-87.5 110t-125 46.5q-56 0 -104 -7t-68 -13l-20 -7v-1122q0 -26 20 -45t48.5 -27.5t57 -13.5t48.5 -5l20 -1v-41h-565z" />
<glyph unicode="Q" horiz-adv-x="1429" d="M82 659q0 143 44 269t124.5 220.5t200.5 149t264 54.5t264 -54.5t200.5 -149t124.5 -220.5t44 -269q0 -251 -129.5 -436t-352.5 -237q0 -42 41 -101l150 -219q20 -30 51 -61.5t52 -47.5l20 -16v-14q-134 -76 -154 -76q-27 0 -110.5 129.5t-153.5 259.5l-70 129 q-178 0 -319 95.5t-216 252t-75 342.5zM301 662q0 -131 26.5 -245t77 -202t130.5 -139t180 -51q131 0 227 88.5t142 230.5t46 318q0 174 -46 314t-141.5 226t-227.5 86t-227.5 -86t-141 -225.5t-45.5 -314.5z" />
<glyph unicode="R" horiz-adv-x="1247" d="M82 0v41q8 0 21 0.5t46 5.5t58 13.5t46 27.5t21 45v1063q0 26 -20 45t-48 27.5t-56 13.5t-48 6h-20v31h192q109 0 252.5 16.5t167.5 16.5q176 0 275.5 -90t99.5 -256q0 -66 -19.5 -120t-49 -86t-63.5 -58.5t-63.5 -41.5t-49 -31.5t-19.5 -31.5q0 -37 41 -96l237 -363 q20 -30 56 -65t62 -55l26 -19v-25q-154 -45 -174 -45q-29 0 -136 166.5t-199 332.5l-93 167h-172v-502q0 -26 20 -45t48.5 -27.5t57 -13.5t48.5 -5l20 -1v-41h-565zM453 690h211q61 0 106 26.5t69.5 72.5t36 99.5t11.5 115.5q0 120 -68 199t-174 79q-56 0 -104 -7t-68 -13 l-20 -7v-565z" />
<glyph unicode="S" horiz-adv-x="987" d="M102 66v221h37l51 -101q39 -76 100 -109.5t167 -33.5q135 0 192.5 71t57.5 205q0 56 -32.5 105.5t-85 89.5t-115.5 79t-126 82t-115.5 90.5t-85 113t-32.5 141.5q0 47 11 90t40.5 88.5t76 78.5t123.5 54t177 21q52 0 122 -18t114 -36l44 -18v-221h-37l-51 100 q-21 43 -46.5 69.5t-58 39t-63 16.5t-75.5 4q-98 0 -152.5 -70t-54.5 -159q0 -56 33 -105.5t86 -89t117 -79t128 -83t117 -91.5t86 -115t33 -144q0 -171 -124.5 -277t-324.5 -106q-43 0 -93 10t-91 24.5t-76 28.5t-54 24z" />
<glyph unicode="T" horiz-adv-x="1001" d="M0 1067v272q170 -20 283 -20h436q50 0 120.5 5t116.5 10l45 5v-272h-36l-52 100q-27 53 -47 65.5t-84 12.5h-192v-1112q0 -26 20 -45t48 -27.5t56 -13.5t48 -5l20 -1v-41h-563v41q8 0 21 0.5t46 5.5t58.5 13.5t46.5 27.5t21 45v1112h-193q-64 0 -84 -12.5t-47 -65.5 l-51 -100h-37z" />
<glyph unicode="U" horiz-adv-x="1552" d="M31 1288v31h563v-31q-8 0 -21 -0.5t-46 -5.5t-58.5 -13.5t-46.5 -27.5t-21 -45v-817q0 -157 61.5 -250.5t188.5 -93.5q54 0 115 20t109 48t88.5 56t62.5 48l23 20v969q0 26 -20 45t-48 27.5t-56.5 13.5t-48.5 6h-20v31h563v-31q-8 0 -21 -0.5t-46 -5.5t-58 -13.5 t-46 -27.5t-21 -45v-1063q0 -26 20 -45t48 -27.5t56 -13.5t48 -5l20 -1v-41h-354v160q-8 -8 -22.5 -21t-60.5 -45.5t-94.5 -58t-120 -46t-140.5 -20.5q-404 0 -404 389v838q0 26 -20 45t-48 27.5t-56 13.5t-48 6h-20z" />
<glyph unicode="V" horiz-adv-x="1331" d="M0 1288v31h584v-31q-8 0 -22 -1.5t-50 -7.5t-63 -15t-49.5 -26t-22.5 -38q0 -7 10 -37l354 -1042l328 1046q8 24 8 35q0 32 -51.5 53.5t-103.5 26.5l-52 6v31h461v-31q-6 -1 -16.5 -2.5t-38.5 -8.5t-51 -17t-45.5 -29.5t-30.5 -44.5l-375 -1186l-176 -31l-414 1217 q-14 39 -60 64.5t-85 31.5z" />
<glyph unicode="W" horiz-adv-x="1609" d="M-119 1288v31h584v-31q-8 0 -22 -1.5t-49.5 -7.5t-62.5 -15t-49 -26t-22 -38q0 -23 6 -41l275 -1038l227 893l-47 172q-11 40 -57 65.5t-86 30.5l-41 6v31h583v-31q-8 0 -22 -1.5t-49.5 -7.5t-62.5 -15t-49 -26t-22 -38q0 -20 7 -41l274 -1038l266 1046q6 18 6 35 q0 32 -51 53.5t-102 26.5l-51 6v31h460v-31q-6 -1 -16.5 -2.5t-38.5 -8.5t-51 -17t-45.5 -29.5t-30.5 -44.5l-313 -1186l-176 -31l-248 908l-232 -877l-176 -31l-331 1217q-14 39 -60 64.5t-86 31.5z" />
<glyph unicode="X" horiz-adv-x="1310" d="M0 0v41q14 2 37 6.5t72 28t73 57.5l391 545l-321 522q-22 36 -68 58t-81 26l-35 4v31h542v-31q-7 0 -18.5 -1t-40.5 -5.5t-51.5 -11.5t-41 -20.5t-18.5 -30.5q0 -10 6 -19l244 -393l252 395q6 12 6 21q0 26 -37 42.5t-75 19.5l-37 3v31h440v-31q-14 -1 -36.5 -5t-72 -26 t-73.5 -55l-334 -448l383 -621q14 -22 40 -40t53.5 -27t53 -15.5t41.5 -8.5l17 -1v-41h-584v41q8 1 21 2t45.5 6.5t58 12.5t46 20.5t20.5 30.5q0 6 -7 20l-303 490l-293 -490q-8 -16 -8 -20q0 -26 43.5 -44t87.5 -23l43 -5v-41h-481z" />
<glyph unicode="Y" horiz-adv-x="1171" d="M0 1288v31h584v-31q-4 0 -12 -0.5t-29.5 -2.5t-41.5 -5t-44.5 -8.5t-42 -12t-29.5 -17.5t-12 -23q0 -10 6 -19l260 -469l268 471q6 12 6 21q0 26 -50.5 42.5t-100.5 19.5l-51 3v31h460v-31q-15 -1 -39 -4t-73 -24.5t-70 -57.5l-307 -518v-551q0 -26 20 -45t48 -27.5 t56 -13.5t48 -5l20 -1v-41h-563v41q8 0 21 0.5t46 5.5t58.5 13.5t46.5 27.5t21 45v524l-320 543q-21 36 -67 58t-81 26z" />
<glyph unicode="Z" horiz-adv-x="1040" d="M61 0v43l662 1202h-412q-64 0 -84 -12.5t-47 -65.5l-51 -100h-37v272q170 -20 283 -20h567v-66q-30 -22 -55 -67l-621 -1110h445q84 0 118.5 15.5t63.5 78.5l35 70h51l-23 -265q-184 25 -323 25h-572z" />
<glyph unicode="[" horiz-adv-x="823" d="M41 -498q5 18 12.5 50t27 135.5t34.5 211.5t27 266.5t12 311.5t-11.5 309.5t-28 271t-33.5 207t-29 139.5l-11 48q24 -7 66 -16.5t157.5 -26t212.5 -16.5q99 0 185.5 8.5t123.5 16.5l37 9v-34q-20 -9 -54 -22.5t-125 -36.5t-167 -23q-89 0 -177.5 18.5t-132.5 36.5 l-44 18q151 -408 151 -907t-151 -907q17 8 48 20.5t124 33t182 20.5q76 0 162.5 -20.5t134.5 -41.5l49 -20v-35q-123 35 -346 35q-97 0 -206 -15t-169 -30z" />
<glyph unicode="\" horiz-adv-x="491" d="M205 -43q0 17 12 29t29 12t29 -12t12 -29t-12 -28t-29 -11t-29 11t-12 28zM205 141q0 17 12 29t29 12t29 -12t12 -29t-12 -28t-29 -11t-29 11t-12 28zM205 -207q0 17 12 29t29 12t29 -12t12 -29t-12 -29t-29 -12t-29 12t-12 29zM205 324q0 17 12 29t29 12t29 -12t12 -29 t-12 -29t-29 -12t-29 12t-12 29zM205 -385q0 17 12 29t29 12t29 -12t12 -29t-12 -29t-29 -12t-29 12t-12 29zM205 494q0 17 12 29t29 12t29 -12t12 -29t-12 -29t-29 -12t-29 12t-12 29zM205 -573q0 17 12 29t29 12t29 -12t12 -29t-12 -29t-29 -12t-29 12t-12 29zM205 682 q0 17 12 29t29 12t29 -12t12 -29t-12 -28t-29 -11t-29 11t-12 28zM205 848q0 17 12 29t29 12t29 -12t12 -29t-12 -29t-29 -12t-29 12t-12 29zM205 1032q0 17 12 29t29 12t29 -12t12 -29t-12 -29t-29 -12t-29 12t-12 29zM205 1214q0 17 12 28t29 11t29 -11t12 -28t-12 -28.5 t-29 -11.5t-29 11.5t-12 28.5zM205 1393q0 17 12 29t29 12t29 -12t12 -29t-12 -29t-29 -12t-29 12t-12 29z" />
<glyph unicode="]" horiz-adv-x="823" d="M0 -438q20 9 54 22.5t125 36.5t167 23q89 0 177.5 -18.5t132.5 -37.5l44 -18q-151 408 -151 907t151 907q-17 -8 -48 -20t-124 -32.5t-182 -20.5q-76 0 -162.5 20.5t-135.5 40.5l-48 21v34q123 -34 346 -34q97 0 206 14.5t170 29.5l60 15q-5 -18 -12.5 -50t-26.5 -135.5 t-34 -211.5t-27 -266.5t-12 -311.5t11.5 -309.5t28 -271t33 -207t27.5 -139.5l12 -48q-24 7 -66 17t-157.5 26.5t-212.5 16.5q-99 0 -185.5 -9t-123.5 -17l-37 -9v35z" />
<glyph unicode="_" horiz-adv-x="681" d="M0 -31h682v-73h-682v73z" />
<glyph unicode="`" horiz-adv-x="956" d="M252 1380q0 27 17 44.5t40 17.5q60 0 84 -74l129 -395h-57l-189 330q-24 43 -24 77z" />
<glyph unicode="a" d="M20 0v41q5 0 12.5 1t29 6.5t39 14t35 27t24.5 43.5l217 729l235 33l230 -762q11 -39 45 -62t62 -27l28 -3v-41h-436v41q5 0 14 1t31.5 5.5t40 12t31.5 23t14 36.5l-2 14l-76 262q-81 -61 -178 -61q-57 0 -119 31l-66 -232q-2 -12 -2 -16q0 -31 36 -50t72 -23l36 -3v-41 h-353zM324 459q68 -45 157 -45q57 0 99 30l-103 344h-55z" />
<glyph unicode="b" horiz-adv-x="1032" d="M102 0v41q6 0 16.5 0.5t36.5 5.5t46 13.5t36.5 27.5t16.5 45v625q0 26 -15.5 45t-38 27.5t-45 13.5t-37.5 6h-16v31h152q81 0 174.5 16t151.5 16q284 0 284 -219q0 -47 -16.5 -86.5t-38.5 -63.5t-48.5 -42t-42 -24.5t-24.5 -8.5q7 0 27 -3t58 -15.5t70 -32t56.5 -59 t24.5 -91.5q0 -61 -20 -108t-53 -76.5t-78.5 -49t-92.5 -27t-100 -7.5h-484zM412 68h123q107 0 170 51.5t63 146.5q0 164 -229 164h-127v-362zM412 485h82q111 0 159.5 52t48.5 155q0 73 -42.5 112.5t-114.5 39.5q-24 0 -57.5 -5t-54.5 -9l-21 -5v-340z" />
<glyph unicode="c" horiz-adv-x="1007" d="M102 457q0 116 41.5 207t110 144t149.5 80t168 27q68 0 126 -7.5t93 -17.5t60 -20.5t35 -17.5l10 -8v-201h-37l-39 78q-34 66 -90.5 98.5t-155.5 32.5q-123 0 -202.5 -99.5t-79.5 -293.5q0 -200 77.5 -313t202.5 -113q93 0 155 37.5t105 117.5l37 70h37v-201 q-4 -4 -11.5 -9.5t-36 -21t-63.5 -27t-95 -21t-128 -9.5q-210 0 -339.5 126.5t-129.5 361.5z" />
<glyph unicode="d" horiz-adv-x="1136" d="M102 0v41q6 0 16.5 0.5t36.5 5.5t46 13.5t36.5 27.5t16.5 45v625q0 26 -15.5 45t-38 27.5t-45 13.5t-37.5 6h-16v31h183q60 0 165 16t162 16q185 0 303.5 -118.5t118.5 -337.5q0 -93 -25 -172.5t-76.5 -144.5t-138.5 -102.5t-202 -37.5h-490zM412 111q4 -6 13.5 -14 t55.5 -22t111 -14q128 0 190 96t62 302q0 93 -16.5 164.5t-42 113.5t-60.5 68.5t-67 35.5t-66 9q-30 0 -57 -3.5t-57 -12.5t-48 -28.5t-18 -47.5v-647z" />
<glyph unicode="e" d="M102 0v41q6 0 16.5 0.5t36.5 5.5t46 13.5t36.5 27.5t16.5 45v625q0 26 -15.5 45t-38 27.5t-45 13.5t-37.5 6h-16v31h467q50 0 118.5 5t111.5 10l43 5v-266h-27l-51 100q-25 49 -46.5 63.5t-84.5 14.5h-221v-348h184q31 0 39.5 6.5t15.5 36.5l21 88h45v-320h-45l-21 93 q-6 29 -15 35t-42 6h-182v-340h225q84 0 118.5 15.5t63.5 78.5l35 69h41l-23 -258q-174 25 -313 25h-457z" />
<glyph unicode="f" horiz-adv-x="905" d="M102 0v41q6 0 16.5 0.5t36.5 5.5t46 13.5t36.5 27.5t16.5 45v625q0 26 -15.5 45t-38 27.5t-45 13.5t-37.5 6h-16v31h459q50 0 121 5t116 10l46 5v-272h-27l-51 100q-28 55 -48.5 69.5t-82.5 14.5h-223v-358h184q31 0 39.5 6.5t15.5 36.5l21 88h45v-320h-45l-21 92 q-6 29 -15 35t-42 6h-182v-266q0 -26 20 -45t48 -27.5t56 -13.5t48 -5l20 -1v-41h-502z" />
<glyph unicode="g" horiz-adv-x="1028" d="M102 451q0 117 41.5 208.5t110 145.5t149.5 82t168 28q68 0 127.5 -7.5t96.5 -17.5t64 -20.5t39 -17.5l11 -8v-201h-37l-38 78q-67 131 -261 131q-123 0 -202.5 -102t-79.5 -297q0 -199 77.5 -309.5t202.5 -110.5q58 0 107.5 10.5t69.5 20.5l20 10v176q0 78 -117 78h-96 v45h371v-316q-5 -4 -13.5 -9.5t-41 -21t-70 -27t-100 -21t-130.5 -9.5q-211 0 -340 123.5t-129 358.5z" />
<glyph unicode="h" horiz-adv-x="1265" d="M102 0v41q6 0 16.5 0.5t36.5 5.5t46 13.5t36.5 27.5t16.5 45v625q0 26 -14.5 45t-35.5 27.5t-42.5 13.5t-35.5 6h-15v31h444v-31q-6 0 -15.5 -0.5t-34 -5.5t-43.5 -13.5t-34.5 -27.5t-15.5 -45v-625q0 -26 15.5 -45t37.5 -27.5t44.5 -13.5t38.5 -5l15 -1v-41h-461z M403 420v51q9 6 24.5 15.5t58.5 25.5t79 16q42 0 108 -30.5t101 -30.5q17 0 38 5.5t34 11.5l12 5v-51q-9 -6 -24.5 -15.5t-58.5 -25.5t-79 -16q-43 0 -110.5 30.5t-96.5 30.5q-19 0 -40.5 -5.5t-33.5 -10.5zM702 0v41q6 0 16.5 0.5t36.5 5.5t46 13.5t36.5 27.5t16.5 45v625 q0 26 -14.5 45t-36 27.5t-42.5 13.5t-35 6h-15v31h444v-31q-6 0 -15.5 -0.5t-34 -5.5t-43.5 -13.5t-34.5 -27.5t-15.5 -45v-625q0 -26 15.5 -45t38 -27.5t44.5 -13.5t38 -5l15 -1v-41h-461z" />
<glyph unicode="i" horiz-adv-x="665" d="M102 0v41q6 0 16.5 0.5t36.5 5.5t46 13.5t36.5 27.5t16.5 45v625q0 26 -15.5 45t-38 27.5t-45 13.5t-37.5 6h-16v31h461v-31q-6 0 -16.5 -0.5t-36.5 -5.5t-45.5 -13.5t-36 -27.5t-16.5 -45v-625q0 -26 15.5 -45t37.5 -27.5t44.5 -13.5t38.5 -5l15 -1v-41h-461z" />
<glyph unicode="j" horiz-adv-x="675" d="M-33 -395q0 13 7.5 19.5t15.5 7.5t24 1q114 0 182 88t68 242v795q0 26 -15.5 45t-37.5 27.5t-44.5 13.5t-38.5 6h-15v31h460v-31q-6 0 -16.5 -0.5t-36.5 -5.5t-45.5 -13.5t-36 -27.5t-16.5 -45v-795q0 -118 -53.5 -208.5t-137.5 -135.5t-182 -45q-26 0 -37 0.5t-24 3.5 t-17 9.5t-4 17.5z" />
<glyph unicode="k" horiz-adv-x="1093" d="M102 0v41q6 0 16.5 0.5t36.5 5.5t46 13.5t36.5 27.5t16.5 45v625q0 26 -15.5 44.5t-38 27t-45 13t-37.5 5.5h-16v33h461v-33q-6 0 -16.5 -0.5t-36.5 -5t-45.5 -13t-36 -27t-16.5 -44.5v-625q0 -26 15.5 -45t37.5 -27.5t44.5 -13.5t38.5 -5l15 -1v-41h-461zM537 412 q0 9 6 18l192 301q17 25 17 39q0 32 -21.5 52t-42.5 24l-22 4v31h354v-31q-11 0 -29.5 -3.5t-64 -28.5t-76.5 -68l-178 -246q-19 -28 -19 -39q0 -14 21 -41l215 -246q21 -29 56.5 -64t60.5 -55l26 -20v-25q-154 -45 -174 -45t-115 137l-198 281q-8 12 -8 25z" />
<glyph unicode="l" horiz-adv-x="854" d="M102 0v41q6 0 16.5 0.5t36.5 5.5t46 13.5t36.5 27.5t16.5 45v625q0 26 -15.5 45t-38 27.5t-45 13.5t-37.5 6h-16v31h461v-31q-6 0 -16.5 -0.5t-36.5 -5.5t-45.5 -13.5t-36 -27.5t-16.5 -45v-682h163q84 0 119 16t64 78l35 70h41l-23 -265q-174 25 -313 25h-396z" />
<glyph unicode="m" horiz-adv-x="1421" d="M72 0h383v41q-6 0 -16.5 0.5t-36.5 5.5t-46 13.5t-36.5 27.5t-16.5 45l35 557h10l268 -690h97l276 762l47 -629q0 -26 -15.5 -45t-38 -27.5t-44.5 -13.5t-38 -5l-15 -1v-41h465v41q-6 0 -15.5 0.5t-35 5.5t-45 13.5t-37 27.5t-19.5 45l-51 629q0 38 38.5 60t76.5 25l38 3 v31h-346l-235 -664h-19l-237 664h-350v-31q5 0 14.5 -0.5t33.5 -4.5t43 -11t36.5 -22t21.5 -36l-39 -643q-2 -26 -18 -45t-38 -27.5t-43.5 -13.5t-36.5 -5l-15 -1v-41z" />
<glyph unicode="n" horiz-adv-x="1220" d="M102 850v31h277l526 -637v516q0 26 -15.5 44.5t-37.5 27t-44.5 13t-37.5 5.5h-16v31h395v-31q-6 0 -16.5 -0.5t-36.5 -5t-46 -13t-36.5 -27t-16.5 -44.5v-760h-92l-536 633v-500q0 -26 15.5 -45t37.5 -27.5t44.5 -13.5t37.5 -5l16 -1v-41h-395v41q6 0 16.5 0.5t36.5 5.5 t45.5 13.5t36 27.5t16.5 45v608q-37 39 -80.5 66.5t-68.5 34.5z" />
<glyph unicode="o" horiz-adv-x="1142" d="M102 446q0 215 124.5 341t344.5 126t344.5 -126t124.5 -341q0 -216 -125 -346.5t-344 -130.5t-344 130.5t-125 346.5zM301 449q0 -424 270 -424q73 0 127 31.5t85.5 89.5t46 133t14.5 170q0 90 -14.5 162t-46 128t-85.5 86.5t-127 30.5q-270 0 -270 -407z" />
<glyph unicode="p" horiz-adv-x="925" d="M102 0v41q6 0 16.5 0.5t36.5 5.5t46 13.5t36.5 27.5t16.5 45v625q0 26 -15.5 45t-38 27.5t-45 13.5t-37.5 6h-16v31h152q66 0 189 16t167 16q130 0 212.5 -73t82.5 -197q0 -76 -30 -134t-78.5 -90t-101.5 -47.5t-107 -15.5q-53 0 -67.5 5.5t-14.5 25.5q0 17 10.5 21 t44.5 4q92 0 137 56t45 173q0 96 -47 150.5t-133 54.5q-38 0 -76 -5t-57 -11l-18 -5v-692q0 -26 16 -45t38.5 -27.5t44.5 -13.5t38 -5l16 -1v-41h-463z" />
<glyph unicode="q" horiz-adv-x="1060" d="M61 446q0 215 124.5 341t344.5 126t344.5 -126t124.5 -341q0 -192 -99.5 -317.5t-278.5 -151.5q11 -35 38 -75l97 -140q20 -30 51 -61t51 -47l21 -16v-15q-114 -76 -134 -76q-56 0 -274 424q-193 19 -301.5 146.5t-108.5 328.5zM260 449q0 -424 270 -424q73 0 127 31.5 t85.5 89.5t46 133t14.5 170q0 90 -14.5 162t-46 128t-85.5 86.5t-127 30.5q-270 0 -270 -407z" />
<glyph unicode="r" horiz-adv-x="1077" d="M102 0v41q6 0 16.5 0.5t36.5 5.5t46 13.5t36.5 27.5t16.5 45v625q0 26 -15.5 45t-38 27.5t-45 13.5t-37.5 6h-16v31h152q109 0 215.5 16t130.5 16q305 0 305 -256q0 -48 -18.5 -88.5t-44.5 -64.5t-52 -42t-44.5 -29t-18.5 -17t1.5 -12t7 -16.5t11 -20.5t18.5 -30.5 t25 -39.5t34.5 -54t43.5 -67q19 -31 53.5 -66t59.5 -54l25 -19v-25q-138 -45 -158 -45q-29 0 -95 109t-117 218l-52 109h-172v-270q0 -26 16 -45t38.5 -27.5t44.5 -13.5t38 -5l16 -1v-41h-463zM412 459h149q182 0 182 196q0 90 -49 139.5t-143 49.5q-41 0 -75.5 -7 t-49.5 -13l-14 -7v-358z" />
<glyph unicode="s" horiz-adv-x="864" d="M102 66v221h37l51 -101q40 -79 86.5 -111t135.5 -32q98 0 145 32.5t47 108.5q0 47 -27 81.5t-70 55.5t-95 39.5t-104.5 41t-95.5 52t-70 80.5t-27 119q0 111 93.5 185.5t252.5 74.5q43 0 84.5 -7.5t70.5 -17.5t52 -20.5t34 -17.5l11 -8v-221h-37l-51 100 q-41 78 -81.5 103.5t-121.5 25.5q-72 0 -115 -41t-43 -107q0 -45 27.5 -79t71.5 -55t97 -40t106 -41.5t97 -52t71.5 -79t27.5 -115.5q0 -133 -103.5 -202t-267.5 -69q-43 0 -88 10t-79.5 24.5t-63 28.5t-43.5 24z" />
<glyph unicode="t" horiz-adv-x="919" d="M61 629v272q160 -20 273 -20h252q50 0 118 5t111 10l43 5v-272h-27l-51 100q-27 53 -47 65.5t-84 12.5h-110v-674q0 -26 15.5 -45t37.5 -27.5t44.5 -13.5t37.5 -5l16 -1v-41h-461v41q6 0 16.5 0.5t36.5 5.5t46 13.5t36.5 27.5t16.5 45v674h-111q-64 0 -84 -12.5 t-47 -65.5l-51 -100h-27z" />
<glyph unicode="u" horiz-adv-x="1224" d="M72 850v31h460v-31q-6 0 -16.5 -0.5t-36.5 -5.5t-45.5 -13.5t-36 -27.5t-16.5 -45v-434q0 -72 7 -122t24 -89.5t49 -58.5t80 -19q44 0 88.5 16.5t76 40.5t57 48t37.5 40l13 17v561q0 26 -15.5 45t-37.5 27.5t-44.5 13.5t-37.5 6h-16v31h460v-31q-6 0 -16.5 -0.5 t-36.5 -5.5t-45.5 -13.5t-36 -27.5t-16.5 -45v-625q0 -26 15.5 -45t37.5 -27.5t44.5 -13.5t37.5 -5l16 -1v-41h-293v129q-5 -7 -13.5 -17.5t-39 -38t-64.5 -48.5t-87 -38.5t-109 -17.5q-158 0 -225.5 75t-67.5 273v441q0 26 -15.5 45t-37.5 27.5t-44.5 13.5t-37.5 6h-16z " />
<glyph unicode="v" horiz-adv-x="978" d="M10 850v31h482v-31q-7 0 -18 -1.5t-39.5 -7.5t-50.5 -15t-40 -26t-18 -38q0 -13 8 -37l198 -625h29l182 615q13 39 13 49q0 32 -41.5 53.5t-82.5 26.5l-42 6v31h379v-31q-5 -1 -13 -2.5t-29 -9t-38.5 -18t-35.5 -29.5t-26 -43l-229 -748l-176 -31l-268 779 q-14 39 -50 64.5t-65 31.5z" />
<glyph unicode="w" horiz-adv-x="1515" d="M20 850v31h482v-31q-7 0 -18 -1.5t-39.5 -7.5t-50.5 -15t-40 -26t-18 -38q0 -13 8 -37l199 -625h28l154 516l-45 132q-14 39 -49.5 64.5t-64.5 31.5l-29 6v31h481v-31q-9 0 -33 -4.5t-55.5 -13.5t-54.5 -27.5t-23 -42.5q0 -13 8 -37l199 -625h28l183 615q12 36 12 49 q0 32 -41.5 53.5t-82.5 26.5l-42 6v31h379v-31l-12.5 -2.5t-29 -9t-39 -18t-35 -29.5t-25.5 -43l-230 -748l-176 -31l-184 537l-156 -506l-176 -31l-268 779q-14 39 -50 64.5t-65 31.5z" />
<glyph unicode="x" horiz-adv-x="948" d="M20 0v41q10 2 26 6.5t54 28t62 57.5l235 291l-217 338q-23 36 -58.5 58t-59.5 26l-25 4v31h440v-31q-5 0 -14 -1t-31 -6t-39 -12t-31 -20.5t-14 -30.5q0 -9 6 -18l140 -209l127 211q6 12 6 20q0 26 -27.5 42.5t-54.5 19.5l-27 4v31h359v-31q-10 -2 -26 -6.5t-54 -26.5 t-62 -53l-209 -264l238 -367q23 -36 64 -59t70 -28l30 -5v-41h-461v41q5 1 14 2t31 6.5t39 12.5t31 20.5t14 30.5q0 3 -41 67t-82 126l-41 63l-145 -256q0 -26 28 -44t56 -23l28 -5v-41h-379z" />
<glyph unicode="y" horiz-adv-x="911" d="M20 850v31h461v-31q-6 0 -16 -1t-36 -6t-45.5 -12t-35.5 -20.5t-16 -30.5q0 -9 6 -18l162 -291l168 293q6 12 6 20q0 26 -35.5 42.5t-70.5 19.5l-36 4v31h359v-31q-4 0 -10.5 -1t-25.5 -6.5t-35.5 -13.5t-36.5 -25.5t-33 -39.5l-207 -340v-291q0 -26 15.5 -45t37.5 -27.5 t44.5 -13.5t37.5 -5l16 -1v-41h-461v41q6 0 16.5 0.5t36.5 5.5t46 13.5t36.5 27.5t16.5 45v264l-221 365q-21 36 -57 58t-61 26z" />
<glyph unicode="z" horiz-adv-x="888" d="M102 0v43l480 768h-238q-62 0 -82.5 -14.5t-48.5 -69.5l-51 -100h-37v272q170 -20 283 -20h364v-66q-28 -25 -55 -68l-430 -675h231q81 0 116.5 18t65.5 82l35 70h51l-22 -265q-185 25 -324 25h-338z" />
<glyph unicode="{" horiz-adv-x="804" d="M143 461v33q6 1 16.5 3.5t37 16t47 32t37 55t16.5 81.5q0 46 -42 219t-42 262q0 230 246 230q99 0 185.5 8.5t123.5 16.5l37 9v-34q-20 -9 -54 -22.5t-125 -36.5t-167 -23q-178 0 -178 -123q0 -44 21.5 -112.5t47 -130t47 -135.5t21.5 -128q0 -34 -11.5 -63.5t-29.5 -50 t-39.5 -37t-43.5 -26.5t-40 -16.5t-30 -8.5l-11 -3q8 -1 22 -4.5t49.5 -18t62.5 -35t49 -59.5t22 -88q0 -54 -21.5 -128t-47 -135t-47 -129.5t-21.5 -112.5q0 -123 178 -123q76 0 162.5 -20.5t134.5 -41.5l49 -20v-35q-123 35 -346 35q-246 0 -246 229q0 89 42 261t42 220 q0 45 -16 81.5t-38.5 55.5t-45 31.5t-38.5 16.5z" />
<glyph unicode="|" horiz-adv-x="696" d="M315 -518v1972h66v-1972h-66z" />
<glyph unicode="}" horiz-adv-x="804" d="M0 -438q20 9 54 22.5t125 36.5t167 23q178 0 178 123q0 44 -21.5 112.5t-47 129.5t-47 135t-21.5 128q0 46 21 84.5t51.5 60t60.5 36t51 19.5l21 5q-8 1 -22 4.5t-49.5 18t-62.5 35t-49 59.5t-22 88q0 67 34.5 166t68.5 192t34 148q0 123 -178 123q-76 0 -162.5 20.5 t-135.5 40.5l-48 21v34q123 -34 346 -34q246 0 246 -230q0 -89 -42 -261t-42 -220q0 -45 16 -81t38.5 -55.5t45 -32t38.5 -15.5l16 -4v-33q-6 -1 -16.5 -4t-37 -16t-47 -32t-37 -55.5t-16.5 -81.5q0 -46 42 -219t42 -262q0 -229 -246 -229q-99 0 -185.5 -9t-123.5 -17 l-37 -9v35z" />
<glyph unicode="&#xa1;" horiz-adv-x="532" d="M133 506q0 106 43 165.5t117 59.5q59 0 92 -32.5t33 -90.5q0 -54 -32.5 -85t-84.5 -31q-42 0 -68.5 18t-32.5 36l-5 17q-9 -18 -9 -57q0 -40 17.5 -83t42 -87.5t49 -97.5t42 -132.5t17.5 -171.5q0 -147 -102 -147q-78 0 -78 86q0 37 16.5 125t16.5 160q0 65 -37 170 t-37 178z" />
<glyph unicode="&#xa2;" horiz-adv-x="886" d="M92 434q0 181 117 308t297 137l26 309q6 73 32 119.5t65 46.5q15 0 25 -10t10 -25q0 -20 -10.5 -31t-23.5 -14t-24.5 -12t-13.5 -27l-35 -354q68 0 133.5 -16t65.5 -52v-70q0 -24 -41 -24q-14 0 -75 7t-101 7q-71 0 -133.5 -18.5t-112.5 -54.5t-79.5 -94t-29.5 -132 q0 -150 98.5 -230.5t256.5 -80.5q48 0 110.5 7t73.5 7q33 0 33 -26v-78q0 -25 -49 -40.5t-92.5 -19.5t-75.5 -4h-29l-31 -319q-6 -73 -31.5 -119.5t-64.5 -46.5q-15 0 -25 10t-10 25q0 20 10.5 31t24 14t25 12t12.5 27l37 374q-156 32 -260.5 163.5t-104.5 293.5z" />
<glyph unicode="&#xa4;" horiz-adv-x="980" d="M31 330v20q0 21 20 21h139q-4 40 -4 63q0 22 4 58h-139q-20 0 -20 20v20q0 21 20 21h152q39 142 158 235t272 93q27 0 56 -2t69.5 -8t66 -21t25.5 -37v-70q0 -24 -39 -24q-15 0 -76 7t-102 7q-120 0 -208 -46t-124 -134h354q9 0 15 -6t6 -15v-20q0 -20 -21 -20h-372 q-4 -36 -4 -58q0 -33 6 -63h370q9 0 15 -6t6 -15v-20q0 -9 -6 -15t-15 -6h-354q36 -91 124.5 -138.5t207.5 -47.5q48 0 109.5 7t74.5 7q33 0 33 -26v-78q0 -25 -49 -40.5t-92.5 -19.5t-75.5 -4q-152 0 -270.5 97t-159.5 243h-152q-20 0 -20 21z" />
<glyph unicode="&#xa6;" horiz-adv-x="716" d="M315 182h86v-700h-86v700zM315 733v701h86v-701h-86z" />
<glyph unicode="&#xa7;" horiz-adv-x="966" d="M102 938q0 86 27 159t71.5 122t102.5 83.5t118.5 50t121.5 15.5q144 0 231.5 -55.5t87.5 -138.5q0 -46 -23.5 -67.5t-52.5 -21.5t-47 17.5t-18 54.5v68q-7 7 -20 18t-62 29t-107 18q-62 0 -118 -20q-2 -10 -2 -31q0 -60 46.5 -144t113 -170t133 -174.5t113 -182 t46.5 -167.5q0 -86 -27 -159t-71 -122t-102 -83.5t-118.5 -50t-121.5 -15.5q-143 0 -231.5 55.5t-88.5 139.5q0 46 23.5 67t52.5 21t47.5 -17.5t18.5 -54.5v-67q2 -3 7 -7.5t21.5 -15.5t36.5 -20t53 -16t70 -7q55 0 117 19q4 20 4 32q0 51 -33.5 119.5t-84 135.5t-109 146 t-109 149.5t-84 147.5t-33.5 140zM209 995q0 -66 46.5 -157t113.5 -182t133.5 -181t113 -175t46.5 -142q0 -17 -3 -29q99 82 99 215q0 56 -33.5 130.5t-84 146.5t-109 153.5t-109 151t-84 139t-33.5 117.5q0 18 2 28q-98 -84 -98 -215z" />
<glyph unicode="&#xa8;" horiz-adv-x="1030" d="M182 1178q0 48 32.5 80t82.5 32t82.5 -32t32.5 -80q0 -47 -32.5 -79t-82.5 -32t-82.5 32t-32.5 79zM598 1178q0 48 32.5 80t82.5 32t82 -32t32 -80q0 -47 -32 -79t-82 -32t-82.5 32t-32.5 79z" />
<glyph unicode="&#xa9;" horiz-adv-x="1247" d="M61 436q0 114 44.5 217.5t119.5 178.5t178.5 119t217.5 44t217.5 -44t178.5 -119t119 -178.5t44 -217.5t-44 -217.5t-119 -178.5t-178.5 -119t-217.5 -44t-217.5 44t-178.5 119t-119.5 178.5t-44.5 217.5zM125 436q0 -135 67 -249t181 -180t248 -66q101 0 192.5 39 t158 105.5t105.5 158t39 192.5q0 204 -145 349t-350 145q-134 0 -248 -66.5t-181 -180t-67 -247.5zM299 434q0 145 97.5 249.5t236.5 104.5q35 0 68.5 -2.5t57.5 -6.5t46.5 -9t35 -9t23.5 -7l10 -4v-127h-36q-38 71 -76.5 92.5t-126.5 21.5q-84 0 -143.5 -88t-59.5 -215 q0 -49 12 -100t35 -97.5t63.5 -76t90.5 -29.5q98 0 140 25t77 98h37v-125q-9 -6 -29.5 -15t-84 -21.5t-140.5 -12.5q-139 0 -236.5 104.5t-97.5 249.5z" />
<glyph unicode="&#xab;" horiz-adv-x="1239" d="M98 422q0 18 27 41l442 340l54 -58l-338 -319l338 -320l-54 -57l-442 334q-27 19 -27 39zM573 422q0 18 27 41l442 340l54 -58l-338 -319l338 -320l-54 -57l-442 334q-27 19 -27 39z" />
<glyph unicode="&#xad;" horiz-adv-x="681" d="M0 438v74h682v-74h-682z" />
<glyph unicode="&#xae;" horiz-adv-x="1028" d="M102 971q0 170 121 290.5t291 120.5t291 -120.5t121 -290.5t-121 -291t-291 -121t-291 121t-121 291zM168 971q0 -144 101.5 -245t244.5 -101q145 0 245.5 100.5t100.5 245.5q0 143 -101 244.5t-245 101.5q-142 0 -244 -101.5t-102 -244.5zM303 741v29q3 0 8 0.5t17 3 t21.5 7t17.5 14.5t8 24v303q0 21 -18 32.5t-36 13.5l-18 1v31h82q27 0 86 6t80 6q75 0 112 -33.5t37 -95.5q0 -27 -12 -50t-29 -37t-34 -24t-29 -14l-12 -4l90 -106q13 -15 34 -33t36 -29l14 -10v-12q-78 -35 -88 -35q-16 0 -55 54.5t-70 109.5l-31 55h-49v-129 q0 -22 18 -34t36 -13l18 -2v-29h-234zM465 991h57q33 0 57.5 24.5t24.5 67.5q0 34 -20.5 57t-57.5 23q-19 0 -34.5 -2.5t-21.5 -4.5l-5 -3v-162z" />
<glyph unicode="&#xb0;" horiz-adv-x="849" d="M141 1085q0 119 87 199t208 80q110 0 191.5 -75.5t81.5 -182.5q0 -119 -87 -199t-206 -80q-108 0 -191.5 75t-83.5 183zM223 1085q0 -74 59 -127t134 -53q86 0 148.5 58t62.5 143q0 73 -57 126.5t-134 53.5q-87 0 -150 -58t-63 -143z" />
<glyph unicode="&#xb1;" horiz-adv-x="927" d="M123 -35v94h682v-94h-682zM123 518v94h295v295h94v-295h293v-94h-293v-293h-94v293h-295z" />
<glyph unicode="&#xb4;" horiz-adv-x="960" d="M399 973l129 395q24 74 84 74q23 0 40.5 -17.5t17.5 -44.5q0 -32 -25 -77l-188 -330h-58z" />
<glyph unicode="&#xb6;" horiz-adv-x="909" d="M129 813q0 105 24.5 191t66 144t99 97t121.5 56.5t135 17.5h295v-59l-129 -29v-1421q0 -166 -100 -262.5t-270 -96.5q-111 0 -174.5 45t-63.5 133q0 55 23.5 83t62.5 28q31 0 55.5 -26t24.5 -62v-68q58 -33 158 -33q72 0 109.5 28.5t37.5 115.5v778q-84 -37 -188 -37 q-109 0 -198 109t-89 268z" />
<glyph unicode="&#xb7;" horiz-adv-x="911" d="M102 512q3 3 8 9t22 21t34 26t41.5 20.5t48.5 9.5q31 0 59.5 -11t55 -34t42.5 -40t42 -48q7 -8 10 -12q19 47 14 57q-84 49 -84 135q0 35 19.5 78.5t19.5 73.5q6 -2 15 -6t32.5 -19t41.5 -32.5t33 -46t15 -60.5q0 -45 -20.5 -90.5t-61.5 -108.5q50 -4 62 2q11 60 51 95.5 t98 35.5q13 0 35 -3t40 -3t34 6q0 -8 -1.5 -20.5t-11.5 -45.5t-27 -58t-53 -45.5t-85 -20.5q-50 0 -152 26q12 -48 23 -57q93 15 147 -59q21 -28 31 -77t27 -69q-5 -1 -13.5 -2.5t-32.5 -3.5t-46 0t-48.5 10.5t-44.5 24.5q-41 36 -54 88t-19 145q-45 -27 -48 -38 q19 -44 19 -74q0 -41 -19.5 -71.5t-43 -45.5t-51 -33.5t-38.5 -34.5q-39 68 -39 136q0 32 14.5 59.5t32.5 45.5t51.5 36t54 26.5t56.5 22.5q-37 33 -51 33q-51 -47 -104 -47q-34 0 -62 12.5t-44 28.5t-36 32t-39 21z" />
<glyph unicode="&#xb8;" horiz-adv-x="948" d="M330 -446q0 9 8 10t22 -3.5t29 -10t32.5 -10.5t29.5 -5q73 0 122.5 28.5t49.5 94.5q0 49 -27 75.5t-100 26.5l-70 -6l-10 13l45 233l59 -12l-31 -168q17 4 33 4q89 0 139 -42t50 -108q0 -53 -22 -92.5t-58.5 -60t-75.5 -30t-82 -9.5q-47 0 -95 14.5t-48 38.5v19z" />
<glyph unicode="&#xbb;" horiz-adv-x="1239" d="M143 106l54 -57l442 334q27 19 27 39q0 18 -27 41l-442 340l-54 -58l338 -319zM618 106l54 -57l442 334q27 19 27 39q0 18 -27 41l-442 340l-54 -58l338 -319z" />
<glyph unicode="&#xbf;" horiz-adv-x="917" d="M143 61q0 58 23.5 105t61 79.5t82.5 60.5t90 54t82.5 54t61 67t23.5 86q-1 -2 -3.5 -6.5t-11.5 -15t-19 -18.5t-27.5 -14.5t-36.5 -6.5q-51 0 -83 31t-32 81q0 51 33 82t88 31q68 0 107 -42.5t39 -121.5q0 -47 -17 -89t-44 -74t-60 -62t-66 -59t-60 -58.5t-44 -67.5 t-17 -79q0 -75 51.5 -126.5t137.5 -51.5q99 0 164 47t65 119q0 40 -13 67.5t-28 38t-28 20t-13 17.5q0 7 5.5 12.5t11.5 5.5q14 0 33 -7.5t41 -24t36.5 -50.5t14.5 -79q0 -118 -94.5 -198.5t-243.5 -80.5q-140 0 -225 76t-85 198z" />
<glyph unicode="&#xc1;" horiz-adv-x="1226" d="M-10 0v41q6 0 16 1t36.5 6.5t48.5 14t43 27t28 43.5l319 1176l246 49l338 -1225q11 -39 54 -62t81 -27l37 -3v-41h-547v41h7.5t19.5 1.5t29 3t32.5 5t34.5 8t31 11.5t25 16t14 21t0 26q-91 329 -153.5 564t-145.5 542h-58l-147 -541q11 -9 29.5 -22.5t71 -35.5t98.5 -22 q24 0 47.5 5.5t37.5 12t25.5 11.5t16 3.5t4.5 -11.5q0 -14 -23.5 -36.5t-73.5 -42t-108 -19.5q-31 0 -70 11.5t-62 22.5l-24 11l-119 -453q-7 -25 10.5 -44t47 -27.5t60 -14t53.5 -5.5l22 -1v-41h-432z" />
<glyph unicode="&#xd1;" horiz-adv-x="1515" d="M0 1288v31h338l811 -1034v911q0 26 -20 45t-48 27.5t-56.5 13.5t-48.5 6h-20v31h478v-31q-8 0 -21 -0.5t-46 -5.5t-58.5 -13.5t-46.5 -27.5t-21 -45v-1196h-92l-795 1008v-875q0 -26 20 -45t48 -27.5t56.5 -13.5t48.5 -5l20 -1v-41h-477v41q8 0 21 0.5t46 5.5t58 13.5 t46 27.5t21 45v983l-69 80q-27 31 -75.5 54t-83.5 30zM379 1440q0 26 8 24q16 12 42 29t94 45.5t120 28.5q60 0 155 -44t144 -44q28 0 65.5 11.5t60.5 23.5l24 12l7 2q5 -2 5 -17q0 -9 -2.5 -15.5t-5.5 -8.5l-2 -2q-16 -12 -43 -29t-96.5 -45.5t-123.5 -28.5 q-62 0 -157.5 44t-138.5 44q-30 0 -66 -12t-57 -24l-21 -11q0 1 -3 0t-6 3.5t-3 13.5z" />
<glyph unicode="&#xd7;" horiz-adv-x="927" d="M162 233l235 238l-235 238l65 65l238 -235l235 235l68 -67l-236 -236l236 -235l-68 -68l-235 235l-238 -235z" />
<glyph unicode="&#xd9;" horiz-adv-x="1146" />
<glyph unicode="&#xda;" horiz-adv-x="841" />
<glyph unicode="&#xdb;" horiz-adv-x="950" />
<glyph unicode="&#xdc;" horiz-adv-x="1480" d="M31 1288v31h563v-31q-8 0 -21 -0.5t-46 -5.5t-58.5 -13.5t-46.5 -27.5t-21 -45v-817q0 -157 61.5 -250.5t188.5 -93.5q54 0 115 20t109 48t88.5 56t62.5 48l23 20v969q0 26 -20 45t-48 27.5t-56.5 13.5t-48.5 6h-20v31h563v-31q-8 0 -21 -0.5t-46 -5.5t-58 -13.5 t-46 -27.5t-21 -45v-1063q0 -26 20 -45t48 -27.5t56 -13.5t48 -5l20 -1v-41h-354v160q-8 -8 -22.5 -21t-60.5 -45.5t-94.5 -58t-120 -46t-140.5 -20.5q-404 0 -404 389v838q0 26 -20 45t-48 27.5t-56 13.5t-48 6h-20zM403 1620q0 48 32.5 80.5t82.5 32.5t82.5 -32.5 t32.5 -80.5q0 -47 -32.5 -79t-82.5 -32t-82.5 32t-32.5 79zM819 1620q0 48 32.5 80.5t82.5 32.5t82.5 -32.5t32.5 -80.5q0 -47 -32.5 -79t-82.5 -32t-82.5 32t-32.5 79z" />
<glyph unicode="&#xe0;" d="M20 0v41q5 0 12.5 1t29 6.5t39 14t35 27t24.5 43.5l217 729l235 33l230 -762q11 -39 45 -62t62 -27l28 -3v-41h-436v41q5 0 14 1t31.5 5.5t40 12t31.5 23t14 36.5l-2 14l-76 262q-81 -61 -178 -61q-57 0 -119 31l-66 -232q-2 -12 -2 -16q0 -31 36 -50t72 -23l36 -3v-41 h-353zM258 1380q0 27 17 44.5t40 17.5q60 0 84 -74l129 -395h-57l-189 330q-24 43 -24 77zM324 459q68 -45 157 -45q57 0 99 30l-103 344h-55z" />
<glyph unicode="&#xe1;" d="M20 0v41q5 0 12.5 1t29 6.5t39 14t35 27t24.5 43.5l217 729l235 33l230 -762q11 -39 45 -62t62 -27l28 -3v-41h-436v41q5 0 14 1t31.5 5.5t40 12t31.5 23t14 36.5l-2 14l-76 262q-81 -61 -178 -61q-57 0 -119 31l-66 -232q-2 -12 -2 -16q0 -31 36 -50t72 -23l36 -3v-41 h-353zM324 459q68 -45 157 -45q57 0 99 30l-103 344h-55zM446 973l129 395q24 74 84 74q23 0 40.5 -17.5t17.5 -44.5q0 -32 -25 -77l-188 -330h-58z" />
<glyph unicode="&#xe2;" d="M20 0v41q5 0 12.5 1t29 6.5t39 14t35 27t24.5 43.5l217 729l235 33l230 -762q11 -39 45 -62t62 -27l28 -3v-41h-436v41q5 0 14 1t31.5 5.5t40 12t31.5 23t14 36.5l-2 14l-76 262q-81 -61 -178 -61q-57 0 -119 31l-66 -232q-2 -12 -2 -16q0 -31 36 -50t72 -23l36 -3v-41 h-353zM178 1004v24q82 41 161.5 124t118.5 181l95 33q43 -109 136.5 -216.5t164.5 -113.5v-24q-42 -11 -93 -11q-89 0 -162 68t-116 180q-33 -59 -78.5 -112t-107 -92.5t-119.5 -40.5zM324 459q68 -45 157 -45q57 0 99 30l-103 344h-55z" />
<glyph unicode="&#xe3;" d="M20 0v41q5 0 12.5 1t29 6.5t39 14t35 27t24.5 43.5l217 729l235 33l230 -762q11 -39 45 -62t62 -27l28 -3v-41h-436v41q5 0 14 1t31.5 5.5t40 12t31.5 23t14 36.5l-2 14l-76 262q-81 -61 -178 -61q-57 0 -119 31l-66 -232q-2 -12 -2 -16q0 -31 36 -50t72 -23l36 -3v-41 h-353zM141 1135q0 26 8 24q16 12 42 29t94 45.5t120 28.5q60 0 155 -44t144 -44q28 0 65.5 12t60.5 24l24 11l7 2q5 -2 5 -17q0 -9 -2.5 -15.5t-5.5 -8.5l-2 -2q-6 -4 -16 -11t-41 -25t-61 -31.5t-70 -24.5t-74 -11q-62 0 -158 44t-139 44q-30 0 -66 -11.5t-57 -23.5 l-21 -12q0 1 -3 0t-6 3.5t-3 13.5zM324 459q68 -45 157 -45q57 0 99 30l-103 344h-55z" />
<glyph unicode="&#xe4;" d="M20 0v41q5 0 12.5 1t29 6.5t39 14t35 27t24.5 43.5l217 729l235 33l230 -762q11 -39 45 -62t62 -27l28 -3v-41h-436v41q5 0 14 1t31.5 5.5t40 12t31.5 23t14 36.5l-2 14l-76 262q-81 -61 -178 -61q-57 0 -119 31l-66 -232q-2 -12 -2 -16q0 -31 36 -50t72 -23l36 -3v-41 h-353zM166 1178q0 48 32.5 80t82.5 32t82.5 -32t32.5 -80q0 -47 -32.5 -79t-82.5 -32t-82.5 32t-32.5 79zM324 459q68 -45 157 -45q57 0 99 30l-103 344h-55zM582 1178q0 48 32.5 80t82.5 32t82 -32t32 -80q0 -47 -32 -79t-82 -32t-82.5 32t-32.5 79z" />
<glyph unicode="&#xe5;" d="M20 0v41q5 0 12.5 1t29 6.5t39 14t35 27t24.5 43.5l217 729l235 33l230 -762q11 -39 45 -62t62 -27l28 -3v-41h-436v41q5 0 14 1t31.5 5.5t40 12t31.5 23t14 36.5l-2 14l-76 262q-81 -61 -178 -61q-57 0 -119 31l-66 -232q-2 -12 -2 -16q0 -31 36 -50t72 -23l36 -3v-41 h-353zM324 459q68 -45 157 -45q57 0 99 30l-103 344h-55zM328 1159q0 72 51 123t123 51t123 -51t51 -123t-51 -123t-123 -51t-123 51t-51 123zM391 1159q0 -46 32.5 -78t78.5 -32t78.5 32t32.5 78t-32.5 78.5t-78.5 32.5t-78.5 -32.5t-32.5 -78.5z" />
<glyph unicode="&#xe7;" horiz-adv-x="897" d="M82 457q0 116 41.5 207t110 144t149.5 80t168 27q68 0 126 -7.5t92.5 -17.5t59.5 -20.5t35 -17.5l10 -8v-201h-36l-39 78q-34 66 -90.5 98.5t-155.5 32.5q-124 0 -203.5 -99.5t-79.5 -293.5q0 -199 78 -312.5t203 -113.5q93 0 155 37.5t105 117.5l37 70h37v-201 q-4 -3 -11 -9t-35 -20.5t-62 -26t-92 -21.5t-124 -11l-24 -149q16 4 32 4q89 0 139 -42t50 -108q0 -53 -22 -92.5t-58.5 -60t-75.5 -30t-82 -9.5q-47 0 -95 14.5t-48 38.5v19q0 9 8 10t22 -3.5t29 -10t32.5 -10.5t29.5 -5q73 0 122.5 28.5t49.5 94.5q0 49 -27 75.5 t-100 26.5l-70 -6l-10 13l37 204q-190 16 -304 141t-114 345z" />
<glyph unicode="&#xe8;" d="M102 0v41q6 0 16.5 0.5t36.5 5.5t46 13.5t36.5 27.5t16.5 45v625q0 26 -15.5 45t-38 27.5t-45 13.5t-37.5 6h-16v31h467q50 0 118.5 5t111.5 10l43 5v-266h-27l-51 100q-25 49 -46.5 63.5t-84.5 14.5h-221v-348h184q31 0 39.5 6.5t15.5 36.5l21 88h45v-320h-45l-21 93 q-6 29 -15 35t-42 6h-182v-340h225q84 0 118.5 15.5t63.5 78.5l35 69h41l-23 -258q-174 25 -313 25h-457zM293 1380q0 27 17 44.5t40 17.5q60 0 84 -74l129 -395h-57l-189 330q-24 43 -24 77z" />
<glyph unicode="&#xe9;" d="M102 0v41q6 0 16.5 0.5t36.5 5.5t46 13.5t36.5 27.5t16.5 45v625q0 26 -15.5 45t-38 27.5t-45 13.5t-37.5 6h-16v31h467q50 0 118.5 5t111.5 10l43 5v-266h-27l-51 100q-25 49 -46.5 63.5t-84.5 14.5h-221v-348h184q31 0 39.5 6.5t15.5 36.5l21 88h45v-320h-45l-21 93 q-6 29 -15 35t-42 6h-182v-340h225q84 0 118.5 15.5t63.5 78.5l35 69h41l-23 -258q-174 25 -313 25h-457zM448 973l129 395q24 74 84 74q23 0 40.5 -17.5t17.5 -44.5q0 -32 -25 -77l-188 -330h-58z" />
<glyph unicode="&#xea;" d="M102 0v41q6 0 16.5 0.5t36.5 5.5t46 13.5t36.5 27.5t16.5 45v625q0 26 -15.5 45t-38 27.5t-45 13.5t-37.5 6h-16v31h467q50 0 118.5 5t111.5 10l43 5v-266h-27l-51 100q-25 49 -46.5 63.5t-84.5 14.5h-221v-348h184q31 0 39.5 6.5t15.5 36.5l21 88h45v-320h-45l-21 93 q-6 29 -15 35t-42 6h-182v-340h225q84 0 118.5 15.5t63.5 78.5l35 69h41l-23 -258q-174 25 -313 25h-457zM178 1004v24q82 41 161.5 124t118.5 181l95 33q43 -109 136.5 -216.5t164.5 -113.5v-24q-42 -11 -93 -11q-89 0 -162 68t-116 180q-33 -59 -78.5 -112t-107 -92.5 t-119.5 -40.5z" />
<glyph unicode="&#xeb;" d="M102 0v41q6 0 16.5 0.5t36.5 5.5t46 13.5t36.5 27.5t16.5 45v625q0 26 -15.5 45t-38 27.5t-45 13.5t-37.5 6h-16v31h467q50 0 118.5 5t111.5 10l43 5v-266h-27l-51 100q-25 49 -46.5 63.5t-84.5 14.5h-221v-348h184q31 0 39.5 6.5t15.5 36.5l21 88h45v-320h-45l-21 93 q-6 29 -15 35t-42 6h-182v-340h225q84 0 118.5 15.5t63.5 78.5l35 69h41l-23 -258q-174 25 -313 25h-457zM202 1178q0 48 32.5 80t82.5 32t82.5 -32t32.5 -80q0 -47 -32.5 -79t-82.5 -32t-82.5 32t-32.5 79zM618 1178q0 48 32.5 80t82.5 32t82 -32t32 -80q0 -47 -32 -79 t-82 -32t-82.5 32t-32.5 79z" />
<glyph unicode="&#xec;" horiz-adv-x="665" d="M102 0v41q6 0 16.5 0.5t36.5 5.5t46 13.5t36.5 27.5t16.5 45v625q0 26 -15.5 45t-38 27.5t-45 13.5t-37.5 6h-16v31h461v-31q-6 0 -16.5 -0.5t-36.5 -5.5t-45.5 -13.5t-36 -27.5t-16.5 -45v-625q0 -26 15.5 -45t37.5 -27.5t44.5 -13.5t38.5 -5l15 -1v-41h-461zM109 1380 q0 27 17 44.5t40 17.5q60 0 84 -74l129 -395h-57l-189 330q-24 43 -24 77z" />
<glyph unicode="&#xed;" horiz-adv-x="665" d="M102 0v41q6 0 16.5 0.5t36.5 5.5t46 13.5t36.5 27.5t16.5 45v625q0 26 -15.5 45t-38 27.5t-45 13.5t-37.5 6h-16v31h461v-31q-6 0 -16.5 -0.5t-36.5 -5.5t-45.5 -13.5t-36 -27.5t-16.5 -45v-625q0 -26 15.5 -45t37.5 -27.5t44.5 -13.5t38.5 -5l15 -1v-41h-461zM309 973 l129 395q24 74 84 74q23 0 40.5 -17.5t17.5 -44.5q0 -32 -25 -77l-188 -330h-58z" />
<glyph unicode="&#xee;" horiz-adv-x="665" d="M8 1004v24q82 41 161.5 124t118.5 181l95 33q43 -109 136.5 -216.5t164.5 -113.5v-24q-42 -11 -93 -11q-89 0 -162 68t-116 180q-33 -59 -78.5 -112t-107 -92.5t-119.5 -40.5zM102 0v41q6 0 16.5 0.5t36.5 5.5t46 13.5t36.5 27.5t16.5 45v625q0 26 -15.5 45t-38 27.5 t-45 13.5t-37.5 6h-16v31h461v-31q-6 0 -16.5 -0.5t-36.5 -5.5t-45.5 -13.5t-36 -27.5t-16.5 -45v-625q0 -26 15.5 -45t37.5 -27.5t44.5 -13.5t38.5 -5l15 -1v-41h-461z" />
<glyph unicode="&#xef;" horiz-adv-x="665" d="M14 1178q0 48 32.5 80t82.5 32t82.5 -32t32.5 -80q0 -47 -32.5 -79t-82.5 -32t-82.5 32t-32.5 79zM102 0v41q6 0 16.5 0.5t36.5 5.5t46 13.5t36.5 27.5t16.5 45v625q0 26 -15.5 45t-38 27.5t-45 13.5t-37.5 6h-16v31h461v-31q-6 0 -16.5 -0.5t-36.5 -5.5t-45.5 -13.5 t-36 -27.5t-16.5 -45v-625q0 -26 15.5 -45t37.5 -27.5t44.5 -13.5t38.5 -5l15 -1v-41h-461zM430 1178q0 48 32.5 80t82.5 32t82 -32t32 -80q0 -47 -32 -79t-82 -32t-82.5 32t-32.5 79z" />
<glyph unicode="&#xf1;" horiz-adv-x="1179" d="M102 850v31h277l526 -637v516q0 26 -15.5 44.5t-37.5 27t-44.5 13t-37.5 5.5h-16v31h395v-31q-6 0 -16.5 -0.5t-36.5 -5t-46 -13t-36.5 -27t-16.5 -44.5v-760h-92l-536 633v-500q0 -26 15.5 -45t37.5 -27.5t44.5 -13.5t37.5 -5l16 -1v-41h-395v41q6 0 16.5 0.5t36.5 5.5 t45.5 13.5t36 27.5t16.5 45v608q-37 39 -80.5 66.5t-68.5 34.5zM256 1135q0 26 8 24q16 12 42 29t94 45.5t120 28.5q60 0 155 -44t144 -44q28 0 65.5 12t61.5 24l23 11l7 2q5 -2 5 -17q0 -9 -2.5 -15.5t-4.5 -8.5l-3 -2q-6 -4 -16 -11t-41 -25t-61 -31.5t-70 -24.5t-74 -11 q-62 0 -158 44t-139 44q-30 0 -66 -11.5t-57 -23.5l-21 -12q0 1 -3 0t-6 3.5t-3 13.5z" />
<glyph unicode="&#xf2;" horiz-adv-x="1142" d="M102 446q0 215 124.5 341t344.5 126t344.5 -126t124.5 -341q0 -216 -125 -346.5t-344 -130.5t-344 130.5t-125 346.5zM301 449q0 -424 270 -424q73 0 127 31.5t85.5 89.5t46 133t14.5 170q0 90 -14.5 162t-46 128t-85.5 86.5t-127 30.5q-270 0 -270 -407zM354 1380 q0 27 17 44.5t40 17.5q60 0 84 -74l129 -395h-57l-189 330q-24 43 -24 77z" />
<glyph unicode="&#xf3;" horiz-adv-x="1142" d="M102 446q0 215 124.5 341t344.5 126t344.5 -126t124.5 -341q0 -216 -125 -346.5t-344 -130.5t-344 130.5t-125 346.5zM301 449q0 -424 270 -424q73 0 127 31.5t85.5 89.5t46 133t14.5 170q0 90 -14.5 162t-46 128t-85.5 86.5t-127 30.5q-270 0 -270 -407zM561 973 l129 395q24 74 84 74q23 0 40.5 -17.5t17.5 -44.5q0 -32 -25 -77l-188 -330h-58z" />
<glyph unicode="&#xf4;" horiz-adv-x="1142" d="M102 446q0 215 124.5 341t344.5 126t344.5 -126t124.5 -341q0 -216 -125 -346.5t-344 -130.5t-344 130.5t-125 346.5zM240 1004v24q82 41 161.5 124t118.5 181l95 33q43 -109 136.5 -216.5t164.5 -113.5v-24q-42 -11 -93 -11q-89 0 -162 68t-116 180q-33 -59 -78.5 -112 t-107 -92.5t-119.5 -40.5zM301 449q0 -424 270 -424q73 0 127 31.5t85.5 89.5t46 133t14.5 170q0 90 -14.5 162t-46 128t-85.5 86.5t-127 30.5q-270 0 -270 -407z" />
<glyph unicode="&#xf5;" horiz-adv-x="1142" d="M102 446q0 215 124.5 341t344.5 126t344.5 -126t124.5 -341q0 -216 -125 -346.5t-344 -130.5t-344 130.5t-125 346.5zM205 1135q0 26 8 24q16 12 42 29t94 45.5t120 28.5q60 0 155 -44t144 -44q28 0 65.5 12t60.5 24l24 11l7 2q5 -2 5 -17q0 -9 -2.5 -15.5t-5.5 -8.5 l-2 -2q-6 -4 -16 -11t-41 -25t-61 -31.5t-70 -24.5t-74 -11q-62 0 -158 44t-139 44q-30 0 -66 -11.5t-57 -23.5l-21 -12q0 1 -3 0t-6 3.5t-3 13.5zM301 449q0 -424 270 -424q73 0 127 31.5t85.5 89.5t46 133t14.5 170q0 90 -14.5 162t-46 128t-85.5 86.5t-127 30.5 q-270 0 -270 -407z" />
<glyph unicode="&#xf6;" horiz-adv-x="1142" d="M102 446q0 215 124.5 341t344.5 126t344.5 -126t124.5 -341q0 -216 -125 -346.5t-344 -130.5t-344 130.5t-125 346.5zM250 1178q0 48 32.5 80t82.5 32t82.5 -32t32.5 -80q0 -47 -32.5 -79t-82.5 -32t-82.5 32t-32.5 79zM301 449q0 -424 270 -424q73 0 127 31.5t85.5 89.5 t46 133t14.5 170q0 90 -14.5 162t-46 128t-85.5 86.5t-127 30.5q-270 0 -270 -407zM666 1178q0 48 32.5 80t82.5 32t82 -32t32 -80q0 -47 -32 -79t-82 -32t-82.5 32t-32.5 79z" />
<glyph unicode="&#xf9;" horiz-adv-x="1224" d="M72 850v31h460v-31q-6 0 -16.5 -0.5t-36.5 -5.5t-45.5 -13.5t-36 -27.5t-16.5 -45v-434q0 -72 7 -122t24 -89.5t49 -58.5t80 -19q44 0 88.5 16.5t76 40.5t57 48t37.5 40l13 17v561q0 26 -15.5 45t-37.5 27.5t-44.5 13.5t-37.5 6h-16v31h460v-31q-6 0 -16.5 -0.5 t-36.5 -5.5t-45.5 -13.5t-36 -27.5t-16.5 -45v-625q0 -26 15.5 -45t37.5 -27.5t44.5 -13.5t37.5 -5l16 -1v-41h-293v129q-5 -7 -13.5 -17.5t-39 -38t-64.5 -48.5t-87 -38.5t-109 -17.5q-158 0 -225.5 75t-67.5 273v441q0 26 -15.5 45t-37.5 27.5t-44.5 13.5t-37.5 6h-16z M375 1380q0 27 17 44.5t40 17.5q60 0 84 -74l129 -395h-57l-189 330q-24 43 -24 77z" />
<glyph unicode="&#xfa;" horiz-adv-x="1224" d="M72 850v31h460v-31q-6 0 -16.5 -0.5t-36.5 -5.5t-45.5 -13.5t-36 -27.5t-16.5 -45v-434q0 -72 7 -122t24 -89.5t49 -58.5t80 -19q44 0 88.5 16.5t76 40.5t57 48t37.5 40l13 17v561q0 26 -15.5 45t-37.5 27.5t-44.5 13.5t-37.5 6h-16v31h460v-31q-6 0 -16.5 -0.5 t-36.5 -5.5t-45.5 -13.5t-36 -27.5t-16.5 -45v-625q0 -26 15.5 -45t37.5 -27.5t44.5 -13.5t37.5 -5l16 -1v-41h-293v129q-5 -7 -13.5 -17.5t-39 -38t-64.5 -48.5t-87 -38.5t-109 -17.5q-158 0 -225.5 75t-67.5 273v441q0 26 -15.5 45t-37.5 27.5t-44.5 13.5t-37.5 6h-16z M569 973l129 395q24 74 84 74q23 0 40.5 -17.5t17.5 -44.5q0 -32 -25 -77l-188 -330h-58z" />
<glyph unicode="&#xfb;" horiz-adv-x="1224" d="M72 850v31h460v-31q-6 0 -16.5 -0.5t-36.5 -5.5t-45.5 -13.5t-36 -27.5t-16.5 -45v-434q0 -72 7 -122t24 -89.5t49 -58.5t80 -19q44 0 88.5 16.5t76 40.5t57 48t37.5 40l13 17v561q0 26 -15.5 45t-37.5 27.5t-44.5 13.5t-37.5 6h-16v31h460v-31q-6 0 -16.5 -0.5 t-36.5 -5.5t-45.5 -13.5t-36 -27.5t-16.5 -45v-625q0 -26 15.5 -45t37.5 -27.5t44.5 -13.5t37.5 -5l16 -1v-41h-293v129q-5 -7 -13.5 -17.5t-39 -38t-64.5 -48.5t-87 -38.5t-109 -17.5q-158 0 -225.5 75t-67.5 273v441q0 26 -15.5 45t-37.5 27.5t-44.5 13.5t-37.5 6h-16z M260 1004v24q82 41 161.5 124t118.5 181l95 33q43 -109 136.5 -216.5t164.5 -113.5v-24q-42 -11 -93 -11q-89 0 -162 68t-116 180q-33 -59 -78.5 -112t-107 -92.5t-119.5 -40.5z" />
<glyph unicode="&#xfc;" horiz-adv-x="1224" d="M72 850v31h460v-31q-6 0 -16.5 -0.5t-36.5 -5.5t-45.5 -13.5t-36 -27.5t-16.5 -45v-434q0 -72 7 -122t24 -89.5t49 -58.5t80 -19q44 0 88.5 16.5t76 40.5t57 48t37.5 40l13 17v561q0 26 -15.5 45t-37.5 27.5t-44.5 13.5t-37.5 6h-16v31h460v-31q-6 0 -16.5 -0.5 t-36.5 -5.5t-45.5 -13.5t-36 -27.5t-16.5 -45v-625q0 -26 15.5 -45t37.5 -27.5t44.5 -13.5t37.5 -5l16 -1v-41h-293v129q-5 -7 -13.5 -17.5t-39 -38t-64.5 -48.5t-87 -38.5t-109 -17.5q-158 0 -225.5 75t-67.5 273v441q0 26 -15.5 45t-37.5 27.5t-44.5 13.5t-37.5 6h-16z M284 1178q0 48 32.5 80t82.5 32t82.5 -32t32.5 -80q0 -47 -32.5 -79t-82.5 -32t-82.5 32t-32.5 79zM700 1178q0 48 32.5 80t82.5 32t82 -32t32 -80q0 -47 -32 -79t-82 -32t-82.5 32t-32.5 79z" />
<glyph unicode="&#x2c6;" horiz-adv-x="1024" d="M117 1004v24q82 41 161.5 124t118.5 181l95 33q43 -109 136.5 -216.5t164.5 -113.5v-24q-42 -11 -93 -11q-89 0 -162 68t-116 180q-33 -59 -78.5 -112t-107 -92.5t-119.5 -40.5z" />
<glyph unicode="&#x2dc;" horiz-adv-x="1177" d="M256 1135q0 26 8 24q16 12 42 29t94 45.5t120 28.5q60 0 155 -44t144 -44q28 0 65.5 12t61.5 24l23 11l7 2q5 -2 5 -17q0 -9 -2.5 -15.5t-4.5 -8.5l-3 -2q-6 -4 -16 -11t-41 -25t-61 -31.5t-70 -24.5t-74 -11q-62 0 -158 44t-139 44q-30 0 -66 -11.5t-57 -23.5l-21 -12 q0 1 -3 0t-6 3.5t-3 13.5z" />
<glyph unicode="&#x2000;" horiz-adv-x="866" />
<glyph unicode="&#x2001;" horiz-adv-x="1733" />
<glyph unicode="&#x2002;" horiz-adv-x="866" />
<glyph unicode="&#x2003;" horiz-adv-x="1733" />
<glyph unicode="&#x2004;" horiz-adv-x="577" />
<glyph unicode="&#x2005;" horiz-adv-x="433" />
<glyph unicode="&#x2006;" horiz-adv-x="288" />
<glyph unicode="&#x2007;" horiz-adv-x="288" />
<glyph unicode="&#x2008;" horiz-adv-x="216" />
<glyph unicode="&#x2009;" horiz-adv-x="346" />
<glyph unicode="&#x200a;" horiz-adv-x="96" />
<glyph unicode="&#x2010;" horiz-adv-x="681" d="M0 438v74h682v-74h-682z" />
<glyph unicode="&#x2011;" horiz-adv-x="681" d="M0 438v74h682v-74h-682z" />
<glyph unicode="&#x2012;" horiz-adv-x="681" d="M0 438v74h682v-74h-682z" />
<glyph unicode="&#x2013;" horiz-adv-x="1024" d="M0 438v74h1024v-74h-1024z" />
<glyph unicode="&#x2014;" horiz-adv-x="2048" d="M0 438v74h2048v-74h-2048z" />
<glyph unicode="&#x2018;" horiz-adv-x="679" d="M166 1051q0 77 24 144.5t60.5 112t78.5 77t77.5 47t58.5 14.5q14 0 24.5 -8.5t10.5 -24.5q0 -21 -35 -41q-8 -4 -21 -11.5t-46 -32t-58.5 -52t-46.5 -69.5t-21 -85t23 -43q10 0 33.5 15.5t48.5 15.5q43 0 72.5 -35t29.5 -90q0 -61 -40 -98t-101 -37q-83 0 -127.5 56.5 t-44.5 144.5z" />
<glyph unicode="&#x2019;" horiz-adv-x="679" d="M180 881q0 21 35 41q8 4 21 11.5t46 32t58.5 51.5t46.5 69t21 85t-23 43q-10 0 -33.5 -15t-48.5 -15q-43 0 -72.5 35t-29.5 90q0 61 40 98t101 37q83 0 127.5 -56.5t44.5 -144.5q0 -77 -24 -144.5t-60.5 -112t-78.5 -77t-77.5 -47t-58.5 -14.5q-14 0 -24.5 8.5 t-10.5 24.5z" />
<glyph unicode="&#x201a;" horiz-adv-x="679" d="M172 -326q0 21 35 41q8 4 21 11.5t46 32t58 52t46 69.5t21 85q0 24 -5 33.5t-17 9.5q-10 0 -33.5 -15.5t-48.5 -15.5q-43 0 -72.5 35t-29.5 90q0 61 40 98.5t101 37.5q83 0 127.5 -56.5t44.5 -144.5q0 -77 -24 -144.5t-60.5 -112t-78.5 -77t-77.5 -47t-58.5 -14.5 q-14 0 -24.5 8t-10.5 24z" />
<glyph unicode="&#x201c;" horiz-adv-x="980" d="M121 1051q0 77 24 144.5t60.5 112t78.5 77t77.5 47t58.5 14.5q14 0 24.5 -8.5t10.5 -24.5q0 -21 -35 -41q-8 -4 -21 -11.5t-46 -32t-58.5 -52t-46.5 -69.5t-21 -85t23 -43q10 0 33.5 15.5t48.5 15.5q43 0 72.5 -35t29.5 -90q0 -61 -40 -98t-101 -37q-83 0 -127.5 56.5 t-44.5 144.5zM549 1051q0 77 24 144.5t60.5 112t78.5 77t77.5 47t58.5 14.5q14 0 24.5 -8.5t10.5 -24.5q0 -21 -35 -41q-8 -4 -21 -11.5t-46 -32t-58.5 -52t-46.5 -69.5t-21 -85t23 -43q10 0 33.5 15.5t48.5 15.5q43 0 72.5 -35t29.5 -90q0 -61 -40 -98t-101 -37 q-83 0 -127.5 56.5t-44.5 144.5z" />
<glyph unicode="&#x201d;" horiz-adv-x="980" d="M98 885q0 21 35 41q8 4 21 11.5t46 32t58.5 52t46.5 69.5t21 85t-23 43q-10 0 -33.5 -15.5t-48.5 -15.5q-43 0 -72.5 35t-29.5 90q0 61 40 98t101 37q83 0 127.5 -56.5t44.5 -144.5q0 -77 -24 -144.5t-60.5 -112t-78.5 -77t-77.5 -47t-58.5 -14.5q-14 0 -24.5 8.5 t-10.5 24.5zM526 885q0 21 35 41q8 4 21 11.5t46 32t58.5 52t46.5 69.5t21 85t-23 43q-10 0 -33.5 -15.5t-48.5 -15.5q-43 0 -72.5 35t-29.5 90q0 61 40 98t101 37q83 0 127.5 -56.5t44.5 -144.5q0 -77 -24 -144.5t-60.5 -112t-78.5 -77t-77.5 -47t-58.5 -14.5 q-14 0 -24.5 8.5t-10.5 24.5z" />
<glyph unicode="&#x201e;" horiz-adv-x="980" d="M106 -326q0 21 35 41q8 4 21 11.5t46 32t58.5 52t46.5 69.5t21 85t-23 43q-10 0 -33.5 -15.5t-48.5 -15.5q-43 0 -72.5 35t-29.5 90q0 61 40 98.5t101 37.5q83 0 127.5 -56.5t44.5 -144.5q0 -77 -24 -144.5t-60.5 -112t-78.5 -77t-77.5 -47t-58.5 -14.5q-14 0 -24.5 8 t-10.5 24zM537 -326q0 22 34 41q8 4 21 11.5t46 32t58.5 52t46.5 69.5t21 85t-23 43q-10 0 -33.5 -15.5t-48.5 -15.5q-43 0 -72.5 35t-29.5 90q0 61 40 98.5t101 37.5q83 0 127.5 -56.5t44.5 -144.5q0 -77 -24 -144.5t-60.5 -112t-78.5 -77t-77.5 -47t-58.5 -14.5 q-14 0 -24 8t-10 24z" />
<glyph unicode="&#x2022;" horiz-adv-x="808" d="M123 457q0 25 9 46.5t21.5 33.5t25 21t21.5 12l9 3l98 -98q8 -8 8 -20q0 -11 -8 -19l-98 -98q-3 1 -9 3.5t-21 12t-26 21.5t-20.5 34t-9.5 48zM287 281l98 100q8 8 21 8q11 0 16 -8l100 -100q-1 -3 -3.5 -9t-12 -20.5t-21.5 -25.5t-34 -20t-48 -9q-25 0 -46.5 8.5 t-33.5 21t-21 25t-12 20.5zM287 631q1 3 3.5 9t11.5 20.5t21 25.5t33.5 20t46.5 9q41 0 70.5 -21t38.5 -42l10 -21l-100 -101q-5 -8 -19 -8q-10 0 -18 8zM492 457q0 6 8 18l100 98q3 -1 9 -3.5t21 -11.5t26 -21t20.5 -33.5t9.5 -46.5q0 -41 -21.5 -70.5t-42.5 -38.5l-22 -10 l-100 98q-8 12 -8 21z" />
<glyph unicode="&#x202f;" horiz-adv-x="346" />
<glyph unicode="&#x2039;" horiz-adv-x="763" d="M98 422q0 18 27 41l442 340l54 -58l-338 -319l338 -320l-54 -57l-442 334q-27 19 -27 39z" />
<glyph unicode="&#x203a;" horiz-adv-x="763" d="M143 106l54 -57l442 334q27 19 27 39q0 18 -27 41l-442 340l-54 -58l338 -319z" />
<glyph unicode="&#x205f;" horiz-adv-x="433" />
<glyph unicode="&#x2122;" horiz-adv-x="1673" d="M61 1159v201q111 -14 191 -14h190q36 0 83.5 3.5t77.5 6.5l30 4v-201h-19l-34 70q-19 37 -34 46t-59 9h-77v-453q0 -28 26.5 -43.5t53.5 -17.5l26 -2v-39h-338v39q4 0 11.5 0.5t26 4t32.5 9t25.5 18.5t11.5 31v453h-78q-44 0 -58 -9t-34 -46l-35 -70h-19zM680 729h266v39 q-4 0 -11 0.5t-25 4t-32 9t-25 18.5t-11 31l24 371h6l189 -473h82l192 522l33 -420q0 -28 -26 -43.5t-52 -17.5l-26 -2v-39h338v39q-4 0 -11 0.5t-24.5 4t-31 9t-25.5 18.5t-13 31l-37 420q0 27 27 43t55 18l27 3v31h-258l-164 -465h-12l-168 465h-258v-31q4 0 10.5 -0.5 t23 -3t30 -7.5t25.5 -16t15 -26l-29 -431q-2 -28 -28 -43.5t-51 -17.5l-25 -2v-39z" />
<glyph unicode="&#x25fc;" horiz-adv-x="880" d="M0 0v881h881v-881h-881z" />
</font>
</defs>
</svg>
