<svg id="Capa_1" data-name="Capa 1" xmlns="http://www.w3.org/2000/svg" viewBox="0 0 255 299"><defs><style>.cls-1{fill:#c4cce0;}.cls-2{fill:#fff;}</style></defs><title>caras</title><rect class="cls-1" width="255" height="299"/><path class="cls-2" d="M16,259c-34.44-50.83-10.14-90.53-10.14-90.53-5.65-1.67-23.71,10.17-23.71,10.17,10.16-37.23,66-68.86,66-68.86C42,107.5,24.49,112,24.49,112c45.71-44,101.6-27.64,101.6-27.64,1.69-9.6,29.36-26.53,29.36-26.53-2.83,2.8-4,18.06-4,18.06,2.82-5.09,11.87-10.17,11.87-10.17-5.08,11.84,0,37.23,0,37.23,14.67,14.69,31,65.49,31,65.49l6.23,9c7.9,11.3,5,29.08-2.83,33.29-29.34,15.84-32.18-13-32.18-13-24.27-2.82-42.34-29.92-42.34-29.92-32.73,16.93-14.5,64.69-.37,83,18.16,23.51,4.86,61.54,4.86,61.54S50,309.23,16,259Z"/><polygon class="cls-2" points="-0.59 221.25 21.87 212.14 115.43 299 0 299 -0.59 221.25"/></svg>