<svg id="Capa_1" data-name="Capa 1" xmlns="http://www.w3.org/2000/svg" viewBox="0 0 255 299"><defs><style>.cls-1{fill:#c4cce0;}.cls-2{fill:#fff;}</style></defs><title>caras</title><rect class="cls-1" width="255" height="299"/><g id="Layer_2" data-name="Layer 2"><path class="cls-2" d="M72.09,109.24c1.7,22.29,10.56,12.68,12.39,22.45,3,16.24,17.42,28,26.36,32a40.45,40.45,0,0,0,16.25,3.65h0.12a40.45,40.45,0,0,0,16.25-3.65c8.95-4.06,23.32-15.8,26.36-32,1.83-9.77,10.69-.16,12.39-22.45,0-8.88-4.84-11.09-4.84-11.09S179.83,85,180.8,74.88c1.19-12.61-7.36-45.18-53-45.18h-1.32c-45.63,0-54.18,32.57-53,45.18,1,10.12,3.42,23.27,3.42,23.27S72.09,100.35,72.09,109.24Z"/><path class="cls-2" d="M237.35,221.44c-24.5-12.47-60-28-61.73-28.59h-0.05a9.53,9.53,0,0,0-12.19,5.83h0c-6.32,15.24-17.94,42.41-25.16,55.51l-1.74-36.73s10.83-23,12-25.1c2.79-4.94.28-9.14-5-9.14H111.47c-5.23,0-7.75,4.2-5,9.14,1.19,2.11,12,25.1,12,25.1l-1.74,36.73c-7.21-13.1-18.83-40.27-25.16-55.51h0a9.53,9.53,0,0,0-12.19-5.83H79.37c-1.7.55-37.22,16.12-61.73,28.59C6.64,227,0,234,0,241.32V299H255V241.32C255,234,248.36,227,237.35,221.44Z"/></g></svg>