<svg id="Capa_1" data-name="Capa 1" xmlns="http://www.w3.org/2000/svg" viewBox="0 0 1280 743"><defs><style>.cls-1{fill:#c4cadd;}.cls-2{fill:#fff;}</style></defs><title>header</title><rect class="cls-1" width="1280" height="743"/><g id="Sut7Eu"><path class="cls-2" d="M393.45,684.13H358c-1-1.35-1.71-3-2.95-3.93-5.65-4.2-7.15-7.67-5.52-14.32,0.5-2,1.35-3.9,1.93-5.87,2.15-7.21,1.21-10.8-5-15.16s-9.39-9.59-8.18-17.23c0.42-2.58.55-5.25,1.23-7.78,2.37-8.83,5.45-17.48,7.32-26.39a331.8,331.8,0,0,0,7.47-67.32c0-7.7.18-15.35-.11-23-0.19-5,1.52-8.32,5.9-10.86a39.17,39.17,0,0,0,10.34-8.18c13-15.73,19.12-34.36,21-54.37,1.79-18.47-1.5-36.41-7.22-53.91-7.7-23.5-15.31-46.91-18.26-71.7-1.68-14.21-.08-26.92,7.47-38.89a22.61,22.61,0,0,0,2.34-3.74c4.1-10.42.85-16.47-8.63-18.94a35.57,35.57,0,0,0-19.08.24c-15.7,4.33-28.51,20.94-29.18,37.25a53.76,53.76,0,0,0,9.59,33.37c5.52,8,11.62,15.61,16.81,23.81,7.3,11.52,13,23.6,13,37.92,0,10.56-1.59,20.48-6.72,29.55,17.39,29.06,11.56,72.74-1,83.86V467.82c-0.55,11.36-4.55,21.49-9.92,31-4.2,7.43-8.83,14.65-13.66,21.67-4.33,6.33-15-44.59-10.07-61.66,4-13.76.12-25.88-5.76-37.94,0.47,6.57,4.47,12.66,3,20.58-1.22-1.45-2-2-2.15-2.67-1.63-8.13-6.26-14.51-11.66-20.46-6.57-7.19-13.44-14.08-19.59-21.59-8.27-10-16-20.81-19.79-33.22-2.82-9.11-6.92-17.23-11.34-25.52-3.55-6.71-5.89-14-8.76-21V281.55a7.34,7.34,0,0,0,1.4-2.13c3.92-20.66,13.33-38,29.76-51.54C289,214,307.67,206.93,330,210.27c12.93,1.92,25.4,4.87,37.23,10.31s23.5,6.24,35.52-.28c15.33-8.27,31-15.66,47.76-20.82,15.16-4.66,30.72-6.47,46.24-4.5,16,2,31.73,5.74,47.43,9.49,21,5,41.92,9.26,63.65,7.92,0.88-.07,1.77,0,2.64,0,18.09,0.06,35.68-1.88,52.28-10.2,11.63-5.84,22.73-12.25,32.48-21,11.42-10.17,23.16-19.91,34.69-30,5.25-4.63,11-9,15.13-14.58,6.57-8.91,13.87-16.75,23.48-22.34,4.66-2.71,8.67-6,10.42-11.44,2.61-8.28,8.7-13.1,16.4-16.23a40.71,40.71,0,0,0,15.95-10.85,29.3,29.3,0,0,1,23.32-10.54c4.31,0,7.4-1.54,9.37-5.35h51.43A3.77,3.77,0,0,0,896.6,61c5.12,1,10.69-.05,15.35,3.31a3.08,3.08,0,0,0,2.53,0c4-1.86,7.43-.23,10.93,1.59,5,2.62,9.91,5.13,15.89,4.73,1.78-.15,3.69,1.43,5.55,2.29,3.18,1.48,6.35,3.05,9.53,4.58s7,2.32,9.48,4.6c9.64,9,20.09,17.37,27.14,28.86,1.48,2.37,4,4.22,6.23,6,5,4,10.47,7.52,15.32,11.75,2.86,2.48,5.61,4.06,9.42,3.92,5-.2,10.07,0,15.08,0v3.57c-2.64,1.82-5.28,3.61-8.08,5.53,2.15,1.42,3.9,2.6,6.44,4.28-4.5,2.53-8.46,4.39-11.93,6.89-4.15,3-8.73,2.13-13.77,1.82,0.08,6.07-3.1,9.6-7.67,12.24a20.24,20.24,0,0,0-3.23,3c-2.15,2-3.12,4.66-2,7.24,3.23,7.52-.65,13.21-5.71,17.08-7.59,5.76-11,13.42-14.16,21.81-5.92,15.42-12.44,30.55-18.67,45.86a50.66,50.66,0,0,0-2.58,8.35c-1.19,5.52-2.45,6.81-7.78,8a27.82,27.82,0,0,0-8.24,2.7,18.17,18.17,0,0,1-27-13.73,12.89,12.89,0,0,0-2.37-6.24c-5.44-6.42-5.95-7.92-.65-14.23,4.63-5.5,5.65-11.79,4.63-18.24-1.67-11-3.37-22-7.67-32.51-4.07-9.9-4.69-20,.89-29.83a17.71,17.71,0,0,0,1.32-4.47c-0.89-.88-1.24-1.54-1.7-1.68-12-3.05-23.91,5.6-24.18,17.73-0.22,10.92-.3,21.86.11,32.79a155.62,155.62,0,0,1-10.23,60.56c-4.74,12.68-5.09,24.45,2.5,36.24a28.8,28.8,0,0,1,3.58,23.08c-2.32,8.73-.65,16.92.7,25.31,0.62,3.66,2.77,5.37,6.73,5.52,9.59,0.32,18.69,3.24,27.09,7.47,12.49,6.27,24.93,11.63,39.26,12.32,6.7,0.31,10.66,4.86,10.26,11.92-0.33,5.79.89,11.69,1.35,17.54,0.75,9-.27,17-6.6,24.61-12,14.54-23.11,29.84-30.67,47.35-3.53,8.21-9.45,12-18.61,12.22-6.62.11-13.95,0.22-19.28,5-8.75,7.86-19.71,8.67-30.38,10.39-4.14.65-7.54-1.78-7.91-5.22-1-9.21,3.74-16.34,8.53-23.51,3.9-5.79,9.61-4.76,15.16-4.87,5.06-.11,9.85-0.21,13.84,4.12,1.35,1.43,4.79.94,7.67,1.37,0.51-2.26.78-3.66,1.16-5,1.67-6.06,4.5-10.58,11.66-11.53,2.88-.4,6.11-2.56,8.1-4.85,6.25-7.08,11.8-14.7,15.62-23.46a16.14,16.14,0,0,0,.27-12.84A48.09,48.09,0,0,1,932.61,414c-0.62-4.63-3-6.78-7.67-6.06-3.44.56-6.84,1.7-10.34,2.21-10.74,1.51-21.49,4-32.29,3.9-8.91,0-18.18-1.13-26.44-5.87-6-3.45-12.47-5.18-19.55-3.88A62.18,62.18,0,0,1,825,405.58c-4,0-6.46,1.19-8.38,5-6.38,12.68-11.87,25.63-15.18,39.48-1.27,5.14-3,10.12-4.82,15.13-2.37,6.62-5.55,13-7.36,19.82-3,11.42-3.88,23.16-3.71,35a41.53,41.53,0,0,1-1.65,13c-5,15.78-6.89,32.13-9,48.42-0.62,4.93-1.81,10-1.41,14.87,0.59,6.68,2.42,13.25,3.77,19.84,0.86,4.31,2.34,8.53,2.72,12.9,0.46,5.14,2.21,9,6.9,11.52,3.39,1.78,6.49,4.28,10,5.52,12,4.2,16.11,14.3,20.6,24.91-2,1.16-3.2,2.15-4.52,2.5a68,68,0,0,1-34.07,0c-5.39-1.32-7.76-5-7.81-10.31,0-2.94-.06-5.92.11-8.86,0.54-7.81-3-13-10-16a54.32,54.32,0,0,0-5.79-2.21c-4.85-1.48-7.38-4.74-7.43-9.77-0.05-6.22-.16-12.45.27-18.61,0.92-13.79,2.64-27.52,3-41.31,0.21-8.13-1.67-16.32-2.29-24.51a144.79,144.79,0,0,1-.43-19.36c0.56-8.78,2.77-17.48,2.77-26.23,0-18.88-.51-37.73-1.83-56.52-0.57-7.78-3.2-15.57-5.82-23a18.5,18.5,0,0,0-15.78-12.58,63.77,63.77,0,0,0-14.11.24c-12.82,1.41-25.58,4-38.45,4.47-15.27.54-30.55,1.13-45.91-1.08a142.92,142.92,0,0,1-41.31-12.06c-4.1-1.91-8.66-2.88-14.14-4.63-0.86,5.87-1.74,10.77-6,14-0.52.38-.5,1.64-0.6,2.53-0.63,4.93-1.21,9.91-1.79,14.81-1.05,9-2.18,18-3.11,27.09-1.44,13.49-7.1,26-8.25,39.69-1.29,15.68-1.77,31.19,1.33,46.53A214,214,0,0,0,585,609.22c7.55,11.85,17,21.9,30.08,27.85,3.78,1.72,7.45,3.61,11.12,5.52,8.43,4.5,16.18,15.91,17.81,26.84-5.13.76-10.29,2.15-15.44,2.15a196.43,196.43,0,0,1-22.83-1.75c-6.24-.77-11-7.46-9.24-13.59s-0.11-10.07-4.47-14c-4.13-3.8-8.37-6.41-14.16-6-8.12.59-13.44-3.5-16.8-10.5-1-2.15-2-4.31-2.79-6.52-9.61-26-19.88-51.76-33.27-76.1-3.7-6.71-6.94-14-11.94-19.61-7.45-8.29-7.12-16.61-4.1-26.22a120.28,120.28,0,0,0,2.75-61.13c-2.9-14-11.5-24.8-22.21-33.91a28,28,0,0,0-2.87,1.64c-7,5.87-13.71,12.12-21.07,17.51-9.52,7-16.29,16.11-21.92,26.12a204,204,0,0,1-33.83,44,137.56,137.56,0,0,0-9.1,10.82,131.59,131.59,0,0,0-22.47,41.85c-5.92,18.25-9.46,37-12.79,55.82a32.14,32.14,0,0,0,3,20.66c3.05,5.71,4.47,11.13,2.5,17.72-1.71,5.71-.16,11.58,5.3,14.81,9.37,5.44,12.9,15,17.95,23.53C395.89,679.45,394.73,681.74,393.45,684.13Z"/></g></svg>