<svg id="Capa_1" data-name="Capa 1" xmlns="http://www.w3.org/2000/svg" viewBox="0 0 255 299"><defs><style>.cls-1{fill:#c4cce0;}.cls-2{fill:#fff;}</style></defs><title>caras</title><rect class="cls-1" width="255" height="299"/><path class="cls-2" d="M108.75,212.14h38.53s0.88,20.77-18.37,20.77S108.72,216.35,108.75,212.14Z"/><path class="cls-2" d="M201.13,134.49a14.47,14.47,0,0,0-9.06-13.42c0.19-2.12.29-4.21,0.29-6.27,0-35.43-28.72-48.12-64.16-48.12S64,79.37,64,114.8c0,2.06.1,4.16,0.29,6.27a14.47,14.47,0,0,0-9.06,13.42c0,7.86,10.58,18.57,18.53,18.93C85.16,176.25,105.28,195,128.2,195s43-18.74,54.39-41.57C190.55,153.06,201.13,142.35,201.13,134.49Z"/><path class="cls-2" d="M128.19,242.86c15.13,0,27.52-12.56,28.6-28.48l-9.51-2.25c0,11.48-8.4,20.79-19.12,20.79s-19.41-9.31-19.41-20.79l-9.16,2.17C100.63,230.26,113,242.86,128.19,242.86Z"/><path class="cls-2" d="M53.2,225.27c-12.58,3-22.39,13.52-25.12,27l-8.52,42.08a162.61,162.61,0,0,0,43,21,215.86,215.86,0,0,0,65.67,10.1L86.82,217.32Z"/><path class="cls-2" d="M169.22,217.32l-41,108.16a213.72,213.72,0,0,0,65.34-10,162.84,162.84,0,0,0,43-20.89L228,252.28c-2.73-13.49-12.54-24-25.12-27Z"/><path class="cls-2" d="M228,252.28c-2.73-13.49-12.54-24-25.12-27l-0.62-.15c-13.2,28.15-11.49,59.46-8.69,90.37a162.93,162.93,0,0,0,43-20.95Z"/><path class="cls-2" d="M53.2,225.27c-12.58,3-22.39,13.52-25.12,27l-8.52,42.08a162.58,162.58,0,0,0,43,21c2.79-30.87,4.49-62.15-8.7-90.26Z"/><path class="cls-2" d="M86.76,217.34l41.42,108.15L80.5,273.35a5.77,5.77,0,0,1-.43-7.25l10.28-14.36-8.22-3.64A5.77,5.77,0,0,1,79,241Z"/><path class="cls-2" d="M156.79,214.39c-1.08,15.92-13.46,28.48-28.6,28.48s-27.57-12.6-28.6-28.56l-12.77,3,41.37,108.16h0l41-108.16Z"/><path class="cls-2" d="M169.27,217.34L128.18,325.49l47.35-52.15a5.77,5.77,0,0,0,.43-7.25l-10.28-14.36,8.23-3.64a5.77,5.77,0,0,0,3.15-7.07Z"/><path class="cls-2" d="M128.17,243.66s-11.07-5.17-20.57,8.08L92.88,220.2a6.48,6.48,0,0,1,3.22-8.65l15.13-6.8v10.5Z"/><path class="cls-2" d="M128.23,243.66s11.07-5.17,20.57,8.08l14.72-31.54a6.48,6.48,0,0,0-3.22-8.65l-15.13-6.8v10.5Z"/><path class="cls-2" d="M73.63,127.54c-4.81,14,5,49.24,5,49.24-6.8-13.85-14.24-37.49-16.4-50.61-11.49-69.86,56.34-77.93,82.28-72.26,84.4,18.43,41.58,112.17,41.58,112.17-10-7.95-27-45.81-27-45.81,0.49,10.7-.34,13.75-0.34,13.75a67.26,67.26,0,0,1-35.55-20.6C130,127.54,139.89,134,139.89,134c-37.68-10.7-50.09-31.25-50.09-31.25S77.29,116.91,73.63,127.54Z"/><path class="cls-2" d="M198.86,116.55l0.39,0.48S182.81,139.3,129,139.3,57.12,117,57.12,117l0.14-.3Z"/><path class="cls-2" d="M57.12,117a71.07,71.07,0,0,1,142.14,0H57.12Z"/><path class="cls-2" d="M91.4,117C91.4,77.78,107.87,46,128.19,46S165,77.78,165,117H91.4Z"/><ellipse class="cls-2" cx="128.19" cy="46.92" rx="5.58" ry="2.9"/></svg>