<svg id="Capa_1" data-name="Capa 1" xmlns="http://www.w3.org/2000/svg" viewBox="0 0 280.17 270.5"><defs><style>.cls-1,.cls-3{fill:#9a9a9a;}.cls-2{fill:#fff;}.cls-3{font-size:17.74px;font-family:Bebas Neue;}</style></defs><title>pendiente</title><rect class="cls-1" width="280.17" height="270.5"/><rect class="cls-2" x="3.84" y="3.64" width="273.21" height="263.78"/><path class="cls-1" d="M169.8,107.15h-10L155,95.36H125.14l-4.72,11.79h-1.56v-5.89h-7.07v5.89h-1.42a5.66,5.66,0,0,0-5.66,5.66v34.62a5.7,5.7,0,0,0,5.7,5.7h59.34a5.7,5.7,0,0,0,5.7-5.7V112.81A5.66,5.66,0,0,0,169.8,107.15Zm-55.65-3.54h2.36v3.54h-2.36v-3.54Zm58.95,43.82a3.34,3.34,0,0,1-3.34,3.34H110.41a3.34,3.34,0,0,1-3.34-3.34V112.81a3.3,3.3,0,0,1,3.3-3.3H122l4.72-11.79h26.7l4.72,11.79H169.8a3.3,3.3,0,0,1,3.3,3.3v34.62Z"/><path class="cls-1" d="M140.08,106a21.22,21.22,0,1,0,21.22,21.22A21.25,21.25,0,0,0,140.08,106Zm0,40.09a18.86,18.86,0,1,1,18.86-18.86A18.89,18.89,0,0,1,140.08,146.06Z"/><path class="cls-1" d="M140.08,113a14.15,14.15,0,1,0,14.15,14.15A14.16,14.16,0,0,0,140.08,113Zm0,25.94a11.79,11.79,0,1,1,11.79-11.79A11.8,11.8,0,0,1,140.08,139Z"/><path class="cls-1" d="M166,111.87a4.72,4.72,0,1,0,4.72,4.72A4.72,4.72,0,0,0,166,111.87Zm0,7.07a2.36,2.36,0,1,1,2.36-2.36A2.36,2.36,0,0,1,166,118.94Z"/><text class="cls-3" transform="translate(126.85 171.12)">Foto<tspan x="-15.94" y="14">Pendiente</tspan></text></svg>